<?xml version="1.0" encoding="UTF-8"?>
<svg version="1.1" xmlns="http://www.w3.org/2000/svg" width="1024" height="1024">
<path d="M0 0 C337.92 0 675.84 0 1024 0 C1024 337.92 1024 675.84 1024 1024 C686.08 1024 348.16 1024 0 1024 C0 686.08 0 348.16 0 0 Z " fill="#0F9F3E" transform="translate(0,0)"/>
<path d="M0 0 C337.92 0 675.84 0 1024 0 C1024 337.92 1024 675.84 1024 1024 C686.08 1024 348.16 1024 0 1024 C0 686.08 0 348.16 0 0 Z M270.71813965 28.83158875 C268.81373981 28.9361028 268.81373981 28.9361028 266.87086725 29.04272825 C250.31569947 30.13652619 233.63445975 33.42712575 218 39 C216.56340147 39.48186264 215.12599074 39.96131587 213.6875 40.4375 C212.57375 40.81068359 212.57375 40.81068359 211.4375 41.19140625 C209.69052885 41.77093033 207.94009398 42.34005318 206.1875 42.90234375 C167.28416082 55.51553575 129.17954966 80.32741983 103 112 C101.7934375 113.35738281 101.7934375 113.35738281 100.5625 114.7421875 C78.320441 139.90638455 61.41479707 171.52977577 53 204 C52.79874512 204.76844238 52.59749023 205.53688477 52.39013672 206.32861328 C51.72370466 208.90289025 51.07790883 211.48163316 50.4375 214.0625 C50.23962891 214.83335937 50.04175781 215.60421875 49.83789062 216.3984375 C45.68994305 233.56519083 44.55615948 250.71111248 44.61231995 268.30592346 C44.60813591 270.47374001 44.60265258 272.64155436 44.59600013 274.80936474 C44.58166678 280.70513356 44.58575202 286.60076117 44.59316695 292.49653733 C44.59792668 298.87918952 44.58536399 305.26181238 44.57514954 311.64445496 C44.558998 323.40628408 44.55650493 335.16806466 44.56145453 346.92990252 C44.56602742 357.80323371 44.56539304 368.6765484 44.55961418 379.54987907 C44.55885728 381.01342502 44.5581013 382.47697096 44.55734624 383.9405169 C44.55620093 386.14649452 44.55505104 388.35247213 44.55388699 390.55844973 C44.54319507 411.04552426 44.53844309 431.53259333 44.54635715 452.01966953 C44.54665433 452.79056158 44.5469515 453.56145362 44.54725768 454.35570603 C44.54970613 460.6141974 44.55231796 466.87268869 44.55494181 473.13117998 C44.56503724 497.52408431 44.55669689 521.91691974 44.53344727 546.30981445 C44.50731018 573.77597408 44.49454418 601.24209226 44.50163502 628.70826477 C44.50235097 631.64331336 44.50302537 634.57836196 44.50367546 637.51341057 C44.50384527 638.23598337 44.50401508 638.95855617 44.50419003 639.70302512 C44.50648241 650.55815707 44.49856694 661.41325023 44.48538399 672.26837349 C44.47039577 684.63130094 44.47010181 696.99412112 44.4874549 709.35704876 C44.4959204 715.65322723 44.49822439 721.94923412 44.48280334 728.24540329 C44.3970699 766.00256681 45.79365094 802.41426007 60 838 C60.34160156 838.90234375 60.68320312 839.8046875 61.03515625 840.734375 C75.7977884 878.1965383 101.17290602 913.17222544 133 938 C133.98355469 938.78890625 134.96710938 939.5778125 135.98046875 940.390625 C193.7389514 986.34086848 260.23911541 993.32384176 331.30387163 993.29076743 C336.88544193 993.29035272 342.46699271 993.30145911 348.04855347 993.31088257 C358.93694385 993.32735003 369.82531255 993.33298545 380.71371436 993.33410732 C389.57518807 993.33506398 398.43665474 993.33920471 407.29812622 993.34550858 C428.42614195 993.36022928 449.55415345 993.3725627 470.68217468 993.37151146 C471.69101759 993.37146472 471.69101759 993.37146472 472.72024117 993.37141704 C476.12764568 993.37125087 479.53505019 993.3710528 482.9424547 993.37084763 C483.61895963 993.37080774 484.29546457 993.37076785 484.99246965 993.37072675 C486.36051778 993.37064587 487.7285659 993.37056228 489.09661402 993.37047596 C510.38312155 993.36925036 531.66956537 993.38428075 552.95605469 993.41162109 C576.96984179 993.44245301 600.98358105 993.45952192 624.99739361 993.45769465 C637.67636203 993.45703412 650.35525846 993.46237843 663.03421021 993.48405075 C673.82377931 993.50237831 684.61324374 993.50651527 695.40282178 993.4930319 C700.89150402 993.48656211 706.37998611 993.48616472 711.86864853 993.5037384 C789.43748258 993.73608199 857.69889589 973.23292787 914 918 C917.1497766 914.77841998 920.11700655 911.46167749 923 908 C923.41137207 907.50628906 923.82274414 907.01257813 924.24658203 906.50390625 C932.23572412 896.83299508 939.24707957 886.56180227 946 876 C946.98806641 874.46085938 946.98806641 874.46085938 947.99609375 872.890625 C956.49224527 858.99853429 962.7968859 843.40701771 968 828 C968.28085449 827.18772949 968.56170898 826.37545898 968.85107422 825.53857422 C980.34436119 791.68573388 980.74229792 757.20428811 980.6096462 721.86033046 C980.59189579 715.63077527 980.60358143 709.40125808 980.61131287 703.17169189 C980.62068328 692.41613972 980.61202521 681.66076828 980.58978081 670.90524483 C980.56648869 659.63305089 980.55296934 648.36091637 980.55226326 637.08869743 C980.55220981 636.38280992 980.55215636 635.6769224 980.55210129 634.94964435 C980.55191264 632.08324125 980.55179111 629.21683814 980.55175897 626.35043503 C980.55142922 600.32725353 980.52683377 574.30415463 980.48706055 548.28100586 C980.44960633 523.77513698 980.42838805 499.26932553 980.42553711 474.76342773 C980.42544561 474.00724173 980.4253541 473.25105573 980.42525982 472.47195501 C980.42498338 470.18411603 980.42471189 467.89627705 980.4244408 465.60843807 C980.42407772 462.56892017 980.42370432 459.52940227 980.42332363 456.48988438 C980.42318829 455.36466616 980.42318829 455.36466616 980.42305022 454.21671627 C980.42006355 430.73564462 980.40259618 407.25458251 980.38263602 383.77351995 C980.37603906 376.0039797 980.37034141 368.23444095 980.36744571 360.46489835 C980.36718453 359.7681089 980.36692336 359.07131945 980.36665427 358.35341517 C980.36639514 357.65822808 980.36613602 356.96304099 980.36586904 356.24678762 C980.36085863 342.82515736 980.34930342 329.40357481 980.32456874 315.98196275 C980.31339848 309.85685154 980.30522942 303.73177938 980.30570221 297.60665703 C980.30601308 291.98846746 980.29695256 286.37036998 980.28073419 280.75220453 C980.27645645 278.73205121 980.2754203 276.71188751 980.27816027 274.69173152 C980.34853671 214.22249952 961.63194402 155.28356435 920.0625 110.25 C918.24942906 108.27210442 916.52960986 106.24803183 914.8125 104.1875 C893.08096993 79.42250693 863.26016225 60.47740456 833 48 C832.09765625 47.62230469 831.1953125 47.24460937 830.265625 46.85546875 C827.85609442 45.86724624 825.43272277 44.92970862 823 44 C822.03022217 43.62721924 821.06044434 43.25443848 820.0612793 42.87036133 C810.8170042 39.43599172 801.54741419 36.97037892 791.9375 34.8125 C791.17197815 34.63846649 790.4064563 34.46443298 789.61773682 34.28512573 C778.42087246 31.75554586 767.34674817 29.70026889 755.85419035 29.15005141 C753.71892254 29.03779543 751.58473004 28.9047444 749.4513402 28.76115531 C738.69323352 28.04179041 727.98735965 27.85569513 717.20788574 27.86628723 C715.37294643 27.86441417 713.53800751 27.86211151 711.70306921 27.85942191 C706.70868032 27.85335821 701.7143083 27.85343104 696.71991658 27.85461628 C691.31394145 27.85482169 685.90797155 27.84928812 680.5019989 27.84455872 C669.92604979 27.83628031 659.35010626 27.83350511 648.77415419 27.83294634 C640.16500234 27.83246962 631.55585232 27.83040713 622.94670105 27.82724571 C598.47843032 27.81844502 574.01016396 27.81382515 549.54189163 27.81457619 C547.56653369 27.81463612 547.56653369 27.81463612 545.55126953 27.81469727 C543.57346698 27.81475859 543.57346698 27.81475859 541.55570883 27.81482115 C520.22337126 27.81532188 498.89105458 27.80567273 477.55872124 27.7915589 C455.59623144 27.77714421 433.63375024 27.77029158 411.67125559 27.77115268 C399.36484943 27.771483 387.0584618 27.76880882 374.75205994 27.75797462 C364.26667322 27.74880209 353.78131344 27.74674895 343.29592443 27.75348405 C337.96119727 27.75671622 332.62652158 27.75692809 327.29179955 27.7481308 C308.41636245 27.71914321 289.56771019 27.74641841 270.71813965 28.83158875 Z " fill="#FCFDFC" transform="translate(0,0)"/>
<path d="M0 0 C0.92167969 0.80050781 1.84335937 1.60101563 2.79296875 2.42578125 C3.53933594 3.07160156 4.28570313 3.71742188 5.0546875 4.3828125 C20.02268025 18.35097863 28.35376999 37.83633304 32.79296875 57.42578125 C33.16228516 58.98425781 33.16228516 58.98425781 33.5390625 60.57421875 C35.75327341 71.96595211 34.96850273 83.87429538 34.79296875 95.42578125 C32.27340132 96.69917607 29.75238226 97.96954767 27.23046875 99.23828125 C26.52599609 99.59470703 25.82152344 99.95113281 25.09570312 100.31835938 C12.93689077 106.42578125 12.93689077 106.42578125 8.79296875 106.42578125 C8.77314941 105.7930127 8.75333008 105.16024414 8.73291016 104.50830078 C7.77917468 75.3745801 6.69917375 45.51184015 -15.20703125 23.42578125 C-18.37417387 20.76681873 -21.6645296 18.55234287 -25.20703125 16.42578125 C-26.13 15.85730469 -27.05296875 15.28882813 -28.00390625 14.703125 C-33.53869288 11.46940298 -37.81145052 9.78109129 -44.20703125 9.42578125 C-44.53703125 9.09578125 -44.86703125 8.76578125 -45.20703125 8.42578125 C-67.29787494 7.28269307 -85.5681833 13.49335317 -102.5625 28.0078125 C-121.17166193 45.02268877 -133.50217767 68.01782127 -142.20703125 91.42578125 C-142.74950346 92.86477062 -143.29248723 94.30356722 -143.8359375 95.7421875 C-144.86808735 98.48037524 -145.89243863 101.2212628 -146.91015625 103.96484375 C-147.68496683 106.03256115 -148.4801108 108.09309535 -149.31640625 110.13671875 C-150.13214099 112.23330013 -150.71237351 114.2351541 -151.20703125 116.42578125 C-151.71648445 118.68193114 -152.31298138 120.68477045 -153.19140625 122.83203125 C-154.2464287 125.52639627 -154.86349083 128.09505003 -155.45703125 130.92578125 C-157.05278017 138.0984259 -159.07357365 145.12719517 -161.13769531 152.17773438 C-161.3900293 153.04333984 -161.64236328 153.90894531 -161.90234375 154.80078125 C-162.12937988 155.57164062 -162.35641602 156.3425 -162.59033203 157.13671875 C-163.2407201 159.55082745 -163.74219419 161.9697927 -164.20703125 164.42578125 C-162.45132813 164.55533203 -162.45132813 164.55533203 -160.66015625 164.6875 C-148.60444428 165.6499814 -136.67266757 167.14233177 -124.70703125 168.86328125 C-113.40807159 170.48738593 -102.13748738 171.92511268 -90.76953125 172.98828125 C-80.2558553 173.97639315 -69.82320333 175.24045795 -59.36987305 176.73242188 C-47.28985424 178.44496718 -35.1887024 179.97673615 -23.08203125 181.48828125 C-21.51964218 181.68357422 -21.51964218 181.68357422 -19.9256897 181.8828125 C-6.56333668 183.5496395 6.80153802 185.16718118 20.19384766 186.57641602 C21.1482373 186.67752686 22.10262695 186.7786377 23.0859375 186.8828125 C23.88539795 186.9650708 24.6848584 187.0473291 25.50854492 187.13208008 C27.79296875 187.42578125 27.79296875 187.42578125 29.80677795 187.9342804 C34.15620474 188.65015796 38.45545767 188.57866592 42.85644531 188.58349609 C43.86684372 188.58857681 44.87724213 188.59365753 45.91825867 188.59889221 C48.10953154 188.60957973 50.30081521 188.61820623 52.49210358 188.62501144 C55.96474356 188.63682472 59.43726054 188.65628439 62.90985107 188.6781311 C72.78246956 188.73966258 82.65507505 188.79375583 92.52783203 188.82714844 C98.57022457 188.84813412 104.6123919 188.88346868 110.65465546 188.92790604 C112.9526275 188.94203467 115.25063937 188.95078136 117.54865265 188.95396042 C120.76997828 188.95888829 123.99070987 188.98209533 127.21191406 189.00927734 C128.1535289 189.00627121 129.09514374 189.00326508 130.06529236 189.00016785 C139.09471135 189.11288401 146.44723041 191.09709629 153.0625 197.421875 C158.37792169 203.57720531 159.23421118 209.66785361 159.12890625 217.62890625 C158.79296875 220.42578125 158.79296875 220.42578125 157.91162109 222.51123047 C156.36664347 226.53653447 155.50812696 230.65570706 154.55859375 234.85546875 C152.15058201 245.22415711 149.32736338 255.44136544 146.37490845 265.66629028 C142.08056274 280.55559227 137.90739335 295.4653623 134.10546875 310.48828125 C133.3987593 313.27872756 132.69199169 316.06915859 131.984375 318.859375 C131.80983795 319.54764374 131.6353009 320.23591248 131.45547485 320.94503784 C129.23424003 329.6690364 126.89086325 338.36018101 124.54296875 347.05078125 C124.33991119 347.80529572 124.13685364 348.55981018 123.92764282 349.33718872 C121.56532501 358.10915376 119.12222134 366.8503689 116.51031494 375.55166626 C114.72970656 381.51374372 113.22438816 387.53052661 111.74609375 393.57421875 C110.86818197 397.12184587 109.93722928 400.64874032 108.98046875 404.17578125 C106.9977841 411.55011427 105.14167744 418.95432677 103.29296875 426.36328125 C102.98512451 427.5963501 102.67728027 428.82941895 102.36010742 430.09985352 C101.13004875 435.03426471 99.90056842 439.96866716 98.69921875 444.91015625 C96.18270253 455.19316219 93.33943757 465.37607769 90.4453125 475.55859375 C89.50264855 478.87815883 88.57979563 482.19733462 87.734375 485.54296875 C84.15467077 499.32085258 78.38726123 511.83050944 68.79296875 522.42578125 C68.179375 523.17988281 67.56578125 523.93398438 66.93359375 524.7109375 C49.76513469 545.39112682 21.80187368 555.91390152 -4.20703125 559.42578125 C-7.4516725 559.58759527 -10.69312792 559.61296778 -13.94140625 559.62890625 C-14.88461227 559.63578461 -15.8278183 559.64266296 -16.79960632 559.64974976 C-19.85212044 559.66693732 -22.90447122 559.67321238 -25.95703125 559.67578125 C-27.50887619 559.67828888 -27.50887619 559.67828888 -29.09207153 559.68084717 C-47.24123478 559.68260965 -65.67891119 559.67773338 -83.20703125 554.42578125 C-84.95192277 554.12378079 -86.70240421 553.85230978 -88.45703125 553.61328125 C-107.20171911 550.597428 -126.49902558 544.81803116 -144.26953125 538.23828125 C-158.7846749 533.25003867 -175.00655851 532.00851089 -190.20703125 530.42578125 C-190.85655762 530.33965576 -191.50608398 530.25353027 -192.17529297 530.16479492 C-220.47245626 526.54005993 -252.23954763 529.43566368 -279.08203125 539.17578125 C-283.94335138 540.69284839 -288.77813955 540.78405756 -293.83203125 540.86328125 C-294.63237793 540.88551758 -295.43272461 540.90775391 -296.25732422 540.93066406 C-304.52869667 540.89990911 -310.62671519 537.54009059 -316.67578125 532.0546875 C-319.13591102 529.4376617 -320.70415161 526.66810491 -322.20703125 523.42578125 C-322.78453125 522.27078125 -323.36203125 521.11578125 -323.95703125 519.92578125 C-327.74217446 509.18665717 -324.75319511 495.94855744 -322.70703125 485.17578125 C-320.04724186 472.39100537 -320.04724186 472.39100537 -320.20703125 459.42578125 C-322.40862865 456.52894257 -323.99297587 455.03280894 -327.20703125 453.42578125 C-329.37018223 453.3357277 -331.53615204 453.3111019 -333.70117188 453.31567383 C-335.08402508 453.31513095 -336.46687827 453.31454393 -337.84973145 453.31391907 C-338.95200829 453.31606132 -338.95200829 453.31606132 -340.07655334 453.31824684 C-343.97688667 453.32177011 -347.87707648 453.29594394 -351.77734375 453.27539062 C-356.73677524 453.25112442 -361.6957911 453.23527621 -366.65527344 453.25073242 C-370.66504534 453.26246101 -374.67378437 453.24481358 -378.68339539 453.20828819 C-380.20462323 453.19972422 -381.72595122 453.20167394 -383.24714661 453.21479225 C-392.32154354 453.28713625 -400.20970341 452.8959769 -407.20703125 446.42578125 C-407.90465059 445.1083787 -408.57726783 443.77693641 -409.20703125 442.42578125 C-409.86703125 442.09578125 -410.52703125 441.76578125 -411.20703125 441.42578125 C-412.2585702 429.54172201 -412.2585702 429.54172201 -409.9296875 424.85546875 C-405.7754512 419.90052931 -400.31779042 416.04560692 -393.81038094 415.06441116 C-391.10282664 414.9388965 -388.42135184 414.93378066 -385.71118164 414.97509766 C-384.18029655 414.97404778 -384.18029655 414.97404778 -382.6184845 414.97297668 C-380.41414002 414.97369116 -378.20978381 414.98335032 -376.00551033 415.00105667 C-372.51141203 415.02767341 -369.01821498 415.02761963 -365.52403259 415.02035522 C-355.59408254 415.00473023 -345.66444989 415.03905232 -335.73461914 415.0859375 C-329.64980936 415.11283275 -323.56554065 415.11062464 -317.48071098 415.09147263 C-315.16873271 415.09039311 -312.85671847 415.10079638 -310.54484749 415.12309647 C-307.30671527 415.15423516 -304.07048741 415.14857161 -300.83227539 415.13525391 C-299.88602295 415.153759 -298.93977051 415.1722641 -297.96484375 415.19132996 C-290.98425203 415.1062416 -286.4742366 413.00425545 -281.20703125 408.42578125 C-276.38018216 402.87997397 -275.91040901 397.54076524 -275.99609375 390.4375 C-276.38817096 384.83950874 -277.91287619 381.71993631 -281.95703125 377.67578125 C-288.84798108 372.90512367 -294.04403081 371.98600741 -302.25390625 372.04101562 C-303.23854858 372.03564285 -304.22319092 372.03027008 -305.2376709 372.0247345 C-307.36615034 372.01498404 -309.49466941 372.01200405 -311.62316895 372.01509094 C-314.99473954 372.01958147 -318.36578876 372.00553374 -321.73730469 371.98669434 C-328.89387183 371.94997248 -336.05038377 371.93620984 -343.20703125 371.92578125 C-351.50244254 371.91369327 -359.79759877 371.892132 -368.09289551 371.84577942 C-371.40936343 371.83222605 -374.72550751 371.83637673 -378.04199219 371.84118652 C-380.08138438 371.83184417 -382.12077302 371.82167492 -384.16015625 371.81054688 C-385.07776733 371.8166951 -385.99537842 371.82284332 -386.9407959 371.82917786 C-393.18562372 371.76945856 -398.22310268 370.97997568 -403.1328125 366.77734375 C-403.81923828 365.92269531 -403.81923828 365.92269531 -404.51953125 365.05078125 C-404.99003906 364.48617188 -405.46054687 363.9215625 -405.9453125 363.33984375 C-409.64281473 357.73062985 -410.23730296 351.97472579 -409.20703125 345.42578125 C-406.33857761 339.10367105 -401.97862531 333.88865408 -395.41757774 331.34384727 C-392.21253013 330.42735367 -389.65960659 330.17534542 -386.33828735 330.17422485 C-385.18886154 330.16884201 -384.03943573 330.16345917 -382.85517883 330.15791321 C-380.98481209 330.1640992 -380.98481209 330.1640992 -379.07666016 330.17041016 C-377.73901659 330.16765758 -376.40137466 330.16397607 -375.06373596 330.15943909 C-372.19091201 330.15134856 -369.31816579 330.14915321 -366.44533157 330.15138626 C-361.89752132 330.15422783 -357.34986536 330.13983584 -352.80209351 330.12240601 C-339.87264311 330.07545993 -326.94320376 330.0514425 -314.01367188 330.04492188 C-306.86677515 330.04116549 -299.72005367 330.0230914 -292.57323205 329.98982751 C-288.05767793 329.96966736 -283.54257744 329.96721639 -279.02699685 329.97810769 C-276.2109315 329.98072439 -273.39512749 329.96666459 -270.57913017 329.94802666 C-268.66274158 329.94021276 -266.74630389 329.95210536 -264.8299408 329.96470642 C-257.15396749 329.89145659 -251.0832364 329.25260799 -245.3671875 323.609375 C-245.00496094 323.03316406 -244.64273438 322.45695312 -244.26953125 321.86328125 C-243.88925781 321.28449219 -243.50898438 320.70570313 -243.1171875 320.109375 C-240.31066405 314.91790887 -240.57599248 309.14865012 -241.20703125 303.42578125 C-243.46433116 297.13975774 -247.3236892 294.20094259 -253.20703125 291.42578125 C-253.86703125 291.09578125 -254.52703125 290.76578125 -255.20703125 290.42578125 C-256.86151977 290.32953196 -258.51987031 290.2967518 -260.17715454 290.29447937 C-261.228526 290.29047119 -262.27989746 290.28646301 -263.36312866 290.28233337 C-264.52156281 290.28286209 -265.67999695 290.28339081 -266.87353516 290.28393555 C-268.08992676 290.28046112 -269.30631836 290.27698669 -270.55957031 290.27340698 C-273.20928119 290.26603886 -275.85894167 290.26037082 -278.50865555 290.25711632 C-282.70327115 290.25120607 -286.89780188 290.23466375 -291.09237671 290.21577454 C-292.52882571 290.20943678 -293.96527476 290.20311117 -295.40172386 290.19679737 C-296.12122554 290.19363156 -296.84072721 290.19046575 -297.58203197 290.187204 C-307.34812974 290.14515209 -317.11418887 290.11217544 -326.88037109 290.09985352 C-333.46618927 290.09145882 -340.05179814 290.06891317 -346.63751161 290.03049785 C-350.1209705 290.01077811 -353.60411679 289.99831872 -357.08763504 290.00333214 C-360.98001445 290.00886534 -364.87186855 289.98351039 -368.76416016 289.95581055 C-370.48359329 289.96571266 -370.48359329 289.96571266 -372.23776245 289.97581482 C-379.40331763 289.89218808 -385.36857561 289.08673626 -390.72434425 283.97863293 C-396.09246122 277.83886032 -396.78249001 273.00835905 -396.640625 264.98046875 C-395.88597619 258.7937082 -393.39975005 255.09838199 -388.69499207 251.1600647 C-381.33343281 246.12541404 -373.41716724 246.75435719 -364.85182953 246.83419609 C-362.08526119 246.85977859 -359.32017053 246.85476718 -356.55352783 246.84230042 C-350.68786329 246.82164121 -344.82266497 246.84120745 -338.95703125 246.86328125 C-332.14261128 246.88441037 -325.32866913 246.88896064 -318.51425934 246.86277962 C-315.79242784 246.85942251 -313.07151504 246.88061958 -310.34979248 246.90318298 C-308.6807841 246.9006719 -307.01177686 246.89711204 -305.34277344 246.89233398 C-304.58942719 246.90521957 -303.83608093 246.91810516 -303.05990601 246.93138123 C-299.39104728 246.89636589 -297.37333343 246.53327196 -294.26104736 244.5216217 C-290.25874523 240.43782379 -291.01193471 236.55102177 -291.05566406 231.06298828 C-291.29059964 225.41771374 -292.15738548 219.93072509 -293.08203125 214.36328125 C-294.85121692 203.07419175 -296.35949229 191.82324139 -297.20703125 180.42578125 C-297.29210937 179.31847656 -297.3771875 178.21117187 -297.46484375 177.0703125 C-297.78734937 169.27642662 -295.84526159 163.45974614 -290.70703125 157.55078125 C-281.75932725 149.94523285 -272.50976522 150.81810738 -261.20703125 151.42578125 C-254.90448143 152.05811124 -248.66143847 153.08840289 -242.40966797 154.09277344 C-239.68187215 154.50517795 -236.9569576 154.77275727 -234.20703125 154.98828125 C-230.64641283 155.26894824 -227.1694712 155.72346086 -223.64453125 156.30078125 C-212.55697205 158.08560785 -201.36512204 159.17891364 -190.20703125 160.42578125 C-190.1097876 159.5855542 -190.01254395 158.74532715 -189.91235352 157.87963867 C-188.76136743 148.86409971 -186.76289938 140.4481006 -184.14453125 131.73828125 C-183.74620311 130.39288625 -183.34809529 129.04742599 -182.95019531 127.7019043 C-180.26075231 118.66834573 -177.41644863 109.68710071 -174.45703125 100.73828125 C-173.92903931 99.13883667 -173.92903931 99.13883667 -173.39038086 97.50708008 C-171.28839404 91.2719897 -168.93825824 85.19357005 -166.3527832 79.14282227 C-165.2238042 76.4655567 -164.17808513 73.7660588 -163.14453125 71.05078125 C-154.48764785 50.36137437 -142.10288642 32.06077444 -127.20703125 15.42578125 C-126.44132812 14.56339844 -125.675625 13.70101562 -124.88671875 12.8125 C-112.98785135 0.16743244 -97.12702701 -10.44997386 -80.30859375 -14.98828125 C-78.09068396 -15.55331499 -78.09068396 -15.55331499 -75.64453125 -16.69921875 C-50.69390878 -25.65585246 -19.54617617 -16.29314065 0 0 Z " fill="#FAFCFA" transform="translate(634.20703125,250.57421875)"/>
<path d="M0 0 C7.3332734 6.01350342 12.66255821 13.1687628 17.69580078 21.15185547 C18.370625 22.21146484 18.370625 22.21146484 19.05908203 23.29248047 C27.03873662 37.46483998 29.67870922 59.08259082 25.63720703 74.86669922 C20.13329856 93.3005497 9.23914626 108.68409926 -1.45507812 124.42431641 C-3.39744355 127.28939516 -5.31678425 130.1686551 -7.22705078 133.05517578 C-16.63500502 147.26787786 -26.08577827 161.50552973 -36.30419922 175.15185547 C-28.5284695 168.94236008 -20.84323692 162.64612288 -13.30419922 156.15185547 C-7.3835974 151.05263691 -1.41161259 146.02743462 4.69580078 141.15185547 C5.33775391 140.58595703 5.97970703 140.02005859 6.64111328 139.43701172 C9.34441228 137.746165 11.27176947 137.68474698 14.44580078 137.65185547 C15.92306641 137.60544922 15.92306641 137.60544922 17.43017578 137.55810547 C24.9955087 138.93362055 30.19049008 144.21282979 35.13330078 149.77685547 C35.69186768 150.39149658 36.25043457 151.0061377 36.82592773 151.6394043 C40.88060064 156.13714714 44.73466705 160.78082377 48.52001953 165.50732422 C50.82611778 168.31024795 53.23731609 170.98188822 55.69580078 173.65185547 C59.7893117 178.09912659 63.62022577 182.6990301 67.41455078 187.40185547 C69.76299047 190.23285125 72.2048998 192.94569144 74.69580078 195.65185547 C78.73336155 200.04347925 82.53811041 204.56673881 86.28564453 209.20654297 C89.01807458 212.54568763 91.81854196 215.81968162 94.63330078 219.08935547 C95.13547119 219.6768457 95.6376416 220.26433594 96.1550293 220.86962891 C98.6478951 223.78485798 101.15959621 226.67782023 103.71923828 229.53466797 C104.64908891 230.59442069 105.57878391 231.65430999 106.50830078 232.71435547 C107.33974609 233.64376953 108.17119141 234.57318359 109.02783203 235.53076172 C110.69580078 238.15185547 110.69580078 238.15185547 110.55517578 240.71826172 C110.27158203 241.52134766 109.98798828 242.32443359 109.69580078 243.15185547 C109.35355469 244.21533203 109.35355469 244.21533203 109.00439453 245.30029297 C100.21974782 267.75432268 86.59961564 284.18654301 64.69580078 295.15185547 C55.30986069 299.19317623 45.76002894 301.52531354 35.69580078 303.15185547 C34.46087891 303.35810547 33.22595703 303.56435547 31.95361328 303.77685547 C12.40749252 306.56362912 -7.74025107 306.26185943 -27.12695312 302.56201172 C-29.19629438 302.17218291 -31.26773725 301.82676082 -33.34716797 301.49560547 C-44.59356149 299.60052612 -55.38625514 296.39312012 -66.30419922 293.15185547 C-91.33318849 285.76558309 -116.01383309 279.5614228 -142.26586914 279.81567383 C-144.86945544 279.83938057 -147.47201537 279.83618388 -150.07568359 279.82958984 C-161.27335061 279.84790973 -172.21081901 280.65733088 -183.30419922 282.15185547 C-184.4244751 282.29776123 -185.54475098 282.44366699 -186.69897461 282.59399414 C-203.81924632 284.92963271 -220.29348131 288.65694516 -236.62451172 294.31591797 C-237.68661865 294.68233398 -238.74872559 295.04875 -239.84301758 295.42626953 C-241.87619719 296.13694439 -243.90364867 296.86432765 -245.92358398 297.61181641 C-252.55424795 299.95723287 -258.28649707 300.59712598 -265.30419922 300.15185547 C-256.98542782 291.74099435 -248.27677242 283.83448679 -239.05029297 276.42919922 C-236.04100775 273.93359 -233.164829 271.31418742 -230.30419922 268.65185547 C-225.69420979 264.3622514 -220.92636406 260.34774425 -216.01904297 256.39794922 C-213.19746427 254.06354957 -210.4982921 251.63194949 -207.80419922 249.15185547 C-203.3569281 245.05834455 -198.75702459 241.22743048 -194.05419922 237.43310547 C-191.22320343 235.08466578 -188.51036324 232.64275645 -185.80419922 230.15185547 C-181.33434802 226.03806638 -176.71375029 222.1809825 -171.98779297 218.36669922 C-169.35711365 216.1955272 -166.82477497 213.9494419 -164.30419922 211.65185547 C-160.00428131 207.73294295 -155.54500375 204.06014678 -151.02294922 200.40185547 C-148.38272192 198.21683978 -145.83690202 195.96014156 -143.30419922 193.65185547 C-139.04985979 189.78000397 -134.66287661 186.11663091 -130.19091797 182.49951172 C-128.11727418 180.81309776 -126.05833313 179.11593569 -124.01123047 177.39794922 C-123.4657959 176.94025146 -122.92036133 176.48255371 -122.35839844 176.01098633 C-120.81722446 174.71534822 -119.27747173 173.41802008 -117.73779297 172.12060547 C-114.00508318 169.10088519 -111.50885852 168.67458074 -106.79248047 168.75732422 C-97.8769733 170.17092897 -90.58357582 179.30104166 -84.30419922 185.15185547 C-81.65663773 187.50733722 -78.9801444 189.82872253 -76.30419922 192.15185547 C-74.80371937 193.46380687 -73.30371108 194.7762978 -71.80419922 196.08935547 C-70.79873047 196.96914063 -70.79873047 196.96914063 -69.77294922 197.86669922 C-69.28826172 198.29080078 -68.80357422 198.71490234 -68.30419922 199.15185547 C-65.5661305 197.87805828 -63.33822546 196.49942359 -61.05419922 194.52685547 C-59.69294922 193.35123047 -59.69294922 193.35123047 -58.30419922 192.15185547 C-58.9367929 188.56681397 -60.42440415 186.24656727 -62.51513672 183.29248047 C-63.17747314 182.34961182 -63.83980957 181.40674316 -64.5222168 180.43530273 C-65.234021 179.43426514 -65.9458252 178.43322754 -66.67919922 177.40185547 C-68.14959798 175.31225563 -69.61964895 173.222411 -71.08935547 171.13232422 C-71.8113916 170.10929199 -72.53342773 169.08625977 -73.27734375 168.03222656 C-75.91862345 164.27869514 -78.52377459 160.50138378 -81.11669922 156.71435547 C-81.98903501 155.44217888 -82.86143014 154.17004297 -83.73388672 152.89794922 C-84.15637695 152.28161621 -84.57886719 151.6652832 -85.01416016 151.03027344 C-86.33915924 149.10095039 -87.66874772 147.17486222 -88.99951172 145.24951172 C-98.76747933 131.10808733 -108.54182408 116.94573099 -117.30419922 102.15185547 C-117.85849609 101.23275391 -118.41279297 100.31365234 -118.98388672 99.36669922 C-126.44437109 86.46859812 -128.47709234 73.4993017 -128.55419922 58.83935547 C-128.58513672 57.38625977 -128.58513672 57.38625977 -128.61669922 55.90380859 C-128.67039436 45.84268107 -126.23084216 37.05121235 -121.61669922 28.15185547 C-121.26929688 27.47251953 -120.92189453 26.79318359 -120.56396484 26.09326172 C-109.94363818 5.84766602 -93.34014741 -6.97294192 -72.22998047 -15.02001953 C-47.16261027 -22.11518973 -20.27501726 -15.660421 0 0 Z " fill="#0B9A3B" transform="translate(602.30419921875,479.84814453125)"/>
<path d="M0 0 C0.72324463 -0.00475342 1.44648926 -0.00950684 2.19165039 -0.0144043 C7.43993512 0.00243512 7.43993512 0.00243512 8.5625 1.125 C9.95695749 1.32247219 11.35318152 1.50748587 12.75 1.6875 C25.61181578 4.17510047 37.53266152 13.40836391 45.1875 23.75 C60.76554592 47.38814856 62.01670069 71.68429074 61.5625 99.125 C65.0275 98.63 65.0275 98.63 68.5625 98.125 C68.8925 99.115 69.2225 100.105 69.5625 101.125 C70.5525 101.455 71.5425 101.785 72.5625 102.125 C71.77746094 102.38667969 70.99242187 102.64835937 70.18359375 102.91796875 C64.03135161 105.61287727 60.78309017 107.9001701 58.171875 114.08984375 C54.20133986 124.40233628 54.20133986 124.40233628 54.5625 135.125 C55.5433095 144.40249315 53.15135332 153.11295526 48.3125 161.0625 C46.47873039 164.27159683 46.393571 165.55939142 46.5625 169.125 C49.68685491 169.60843366 52.81209131 170.08593059 55.9375 170.5625 C57.24267578 170.76456055 57.24267578 170.76456055 58.57421875 170.97070312 C66.70435294 172.20527906 74.8274866 173.25832228 83.0625 173.3125 C84.0628125 173.32667969 85.063125 173.34085938 86.09375 173.35546875 C88.73965367 173.37339285 88.73965367 173.37339285 90.5625 171.125 C91.25401289 169.04174479 91.86693583 166.93207517 92.4375 164.8125 C92.78425781 163.5646875 93.13101563 162.316875 93.48828125 161.03125 C93.84665677 159.72924992 94.20472975 158.42716653 94.5625 157.125 C95.23591095 154.68357005 95.92248954 152.2457163 96.625 149.8125 C96.92535156 148.74386719 97.22570312 147.67523438 97.53515625 146.57421875 C97.87417969 145.76597656 98.21320313 144.95773437 98.5625 144.125 C99.5525 143.795 100.5425 143.465 101.5625 143.125 C102.078125 142.609375 102.59375 142.09375 103.125 141.5625 C103.599375 141.088125 104.07375 140.61375 104.5625 140.125 C105.2225 140.125 105.8825 140.125 106.5625 140.125 C107.8825 136.495 109.2025 132.865 110.5625 129.125 C113.56287769 129.78999968 116.56285324 130.45671493 119.5625 131.125 C120.5215625 131.33850098 121.480625 131.55200195 122.46875 131.77197266 C145.46516644 136.91610089 145.46516644 136.91610089 156.67773438 140.36157227 C162.28639685 142.08101112 167.94471974 143.51893567 173.65283203 144.86962891 C178.46169982 146.02419982 178.46169982 146.02419982 179.5625 147.125 C179.16743645 151.86576259 178.0231368 155.97853772 176.45703125 160.453125 C174.18412669 167.24206263 172.29851787 174.18092854 170.5625 181.125 C177.8225 181.125 185.0825 181.125 192.5625 181.125 C192.5625 181.455 192.5625 181.785 192.5625 182.125 C178.83596645 182.17147828 165.10945183 182.20694768 151.38285542 182.22862434 C145.00805684 182.23903156 138.63331237 182.25313457 132.25854492 182.27587891 C126.09881755 182.2977168 119.93914201 182.30959162 113.77937889 182.31475449 C111.43722913 182.31843066 109.09508199 182.32560897 106.75295448 182.33646011 C95.11548393 182.38819962 84.01676435 182.30249032 72.5625 180.125 C68.64458906 179.60805989 64.71700991 179.1833831 60.7890625 178.75 C50.73563691 177.61436231 40.68985578 176.42439454 30.6484375 175.1875 C29.96804665 175.10374115 29.28765579 175.0199823 28.58664703 174.9336853 C24.40582469 174.41875786 20.22519343 173.90229315 16.0446167 173.38537598 C13.23271703 173.03791011 10.42070556 172.69135421 7.60868931 172.34483337 C-5.40165915 170.74153825 -18.4110552 169.13096914 -31.41796875 167.5 C-39.34761475 166.50578906 -47.27977414 165.53706793 -55.21533203 164.59130859 C-68.23487595 163.03845928 -81.22588941 161.36495975 -94.19775391 159.44970703 C-99.93636406 158.61775243 -105.68780984 157.87572759 -111.4375 157.125 C-110.81061153 150.61912083 -109.34206826 144.59307383 -107.5625 138.3125 C-107.30597656 137.39146484 -107.04945313 136.47042969 -106.78515625 135.52148438 C-106.26739351 133.66248197 -105.7468895 131.80424084 -105.22363281 129.94677734 C-104.17486356 126.18228199 -103.17453304 122.40516909 -102.17919922 118.6262207 C-101.41499785 116.04911634 -100.43784129 113.61830158 -99.4375 111.125 C-98.94608626 109.16337301 -98.4557518 107.2014204 -97.98242188 105.23535156 C-97.08339625 101.75364122 -95.89666879 98.38432821 -94.6875 95 C-94.42437012 94.26209229 -94.16124023 93.52418457 -93.89013672 92.76391602 C-80.85188269 56.69710788 -61.39835701 21.1347627 -25.4375 4.125 C-17.05561969 0.61750547 -8.97008863 0.0502885 0 0 Z " fill="#0F9F3B" transform="translate(581.4375,257.875)"/>
<path d="M0 0 C4.47344266 2.77824333 6.39907259 6.01293704 8.6875 10.6875 C9.26886719 11.84636719 9.85023438 13.00523437 10.44921875 14.19921875 C18.59361795 32.76913498 14.63860482 57.40224791 7.57275391 75.72290039 C6.44171892 78.50954238 5.24441867 81.26227893 4 84 C4.97839844 83.94779297 4.97839844 83.94779297 5.9765625 83.89453125 C12.35520347 83.69696272 16.64079622 84.10713275 21.66015625 88.4296875 C25.76583941 92.33154242 27.15507614 95.17718656 27.375 100.9375 C27.24376026 112.00538501 21.06076247 121.12718347 15 130 C11.58285781 129.6925646 8.16639063 129.37816912 4.75 129.0625 C3.29787109 128.93198242 3.29787109 128.93198242 1.81640625 128.79882812 C0.41455078 128.66831055 0.41455078 128.66831055 -1.015625 128.53515625 C-2.30388184 128.41732788 -2.30388184 128.41732788 -3.61816406 128.29711914 C-5.81973758 128.02248661 -7.85464707 127.54877889 -10 127 C-13.33294705 126.7378581 -16.66548845 126.55700572 -20.00390625 126.37890625 C-23 126 -23 126 -26 124 C-21.36411402 119.25314867 -16.64472092 114.7186497 -11.56640625 110.4453125 C-9.88496233 109.06499621 -9.88496233 109.06499621 -9 107 C-10.57587891 107.81404297 -10.57587891 107.81404297 -12.18359375 108.64453125 C-19.3337 112.30129988 -26.24743405 115.78498116 -34 118 C-34.31052131 110.76928943 -33.13170137 104.03391031 -31.8125 96.9375 C-31.58836426 95.71119873 -31.36422852 94.48489746 -31.13330078 93.22143555 C-29.65242568 85.22956703 -28.07691068 77.26023209 -26.375 69.3125 C-26.18139893 68.40040771 -25.98779785 67.48831543 -25.78833008 66.54858398 C-24.54337395 60.89337734 -22.94483133 55.45398351 -21 50 C-22.48525607 52.819974 -23.60514251 55.60199015 -24.5859375 58.6328125 C-24.87726563 59.52226562 -25.16859375 60.41171875 -25.46875 61.328125 C-26.06530166 63.16920685 -26.66166094 65.01035105 -27.2578125 66.8515625 C-29.00883303 72.19678306 -30.93419705 77.41629435 -33.05810547 82.62402344 C-34.48421034 86.22144505 -35.68390915 89.88193706 -36.875 93.5625 C-39.78335702 102.42345795 -42.86483376 111.21708749 -46 120 C-49.94805496 116.2242238 -53.30512143 112.20725912 -56.625 107.875 C-57.57363417 106.64177558 -58.5240971 105.40995531 -59.4765625 104.1796875 C-60.096521 103.37120361 -60.096521 103.37120361 -60.72900391 102.54638672 C-62.06277053 100.92362878 -63.4926169 99.46132265 -65 98 C-64.68192383 98.88522339 -64.68192383 98.88522339 -64.35742188 99.78833008 C-63.4000549 102.46133024 -62.44995415 105.13685693 -61.5 107.8125 C-61.16613281 108.74126953 -60.83226562 109.67003906 -60.48828125 110.62695312 C-60.17246094 111.51962891 -59.85664062 112.41230469 -59.53125 113.33203125 C-59.23798828 114.15421143 -58.94472656 114.9763916 -58.64257812 115.82348633 C-58 118 -58 118 -58 121 C-66.02510226 120.54279777 -73.8822663 119.80306411 -81.80859375 118.4609375 C-86.07377241 117.84491414 -90.33153253 117.66451163 -94.63671875 117.5390625 C-97 117 -97 117 -98.23046875 115.35546875 C-102.42120125 102.52799821 -105.15804645 86.63658603 -99 74 C-96.32490352 69.98360865 -93.59965725 66.72386454 -89 65 C-80.68518017 64.11936637 -74.09230506 64.46092476 -67 69 C-67.05994141 67.46859375 -67.05994141 67.46859375 -67.12109375 65.90625 C-66.56944483 48.11112349 -53.09705049 31.86207765 -41 20 C-40.14148438 19.154375 -39.28296875 18.30875 -38.3984375 17.4375 C-32.74781707 12.12771064 -26.73735575 7.83007263 -20 4 C-19.23816406 3.56429688 -18.47632813 3.12859375 -17.69140625 2.6796875 C-12.08632452 -0.17780515 -6.2312093 -1.28400677 0 0 Z " fill="#75BA26" transform="translate(603,297)"/>
<path d="M0 0 C0.78125 1.85546875 0.78125 1.85546875 1.5 4.1875 C1.7371875 4.94417969 1.974375 5.70085937 2.21875 6.48046875 C2.78456332 8.3052167 3.28123628 10.15187201 3.734375 12.0078125 C5.36858219 15.8714011 7.35678111 17.2501757 10.75 19.6875 C11.92121597 20.54860521 13.0917648 21.41061841 14.26171875 22.2734375 C14.87192871 22.71655273 15.48213867 23.15966797 16.11083984 23.61621094 C19.3065339 25.95702173 22.43636355 28.38000099 25.5625 30.8125 C26.14547852 31.2561792 26.72845703 31.6998584 27.32910156 32.15698242 C30.72573997 34.79358585 33.83691327 37.25332722 36 41 C35.25732422 43.69750977 35.25732422 43.69750977 34 47 C33.5877417 48.16047852 33.1754834 49.32095703 32.75073242 50.51660156 C32.28597805 51.80806278 31.82087335 53.09939796 31.35546875 54.390625 C24.53508606 73.41098437 18.29730609 92.22540448 14 112 C15.65 111.67 17.3 111.34 19 111 C18.35401634 115.87310005 17.49028264 120.63131839 16.4375 125.4375 C16.16808594 126.67371094 15.89867187 127.90992188 15.62109375 129.18359375 C15.41613281 130.11300781 15.21117187 131.04242188 15 132 C6.9624985 132.30077968 -0.67101924 131.48036873 -8.61669922 130.32958984 C-11.37805951 129.94771765 -14.14292773 129.60624667 -16.91015625 129.26953125 C-17.95534424 129.14231689 -19.00053223 129.01510254 -20.07739258 128.8840332 C-22.13819924 128.63457965 -24.19922392 128.38691834 -26.26049805 128.14135742 C-32.89144667 127.32988731 -39.44078116 126.26620883 -46 125 C-45.01 124.01 -45.01 124.01 -44 123 C-44.31910542 120.41855562 -44.31910542 120.41855562 -45.1953125 117.4609375 C-45.49751709 116.33107422 -45.79972168 115.20121094 -46.11108398 114.03710938 C-46.44567627 112.82861328 -46.78026855 111.62011719 -47.125 110.375 C-47.45250244 109.14330078 -47.78000488 107.91160156 -48.11743164 106.64257812 C-49.48073484 101.51949559 -50.86883381 96.4067587 -52.36328125 91.3203125 C-58.00101844 71.27046897 -54.72016311 55.07468907 -46.02148438 36.609375 C-42.69124986 29.50125734 -40.78329944 23.8305931 -43 16 C-43.63873928 14.32243201 -44.29856474 12.65233495 -45 11 C-35.22705676 7.39331857 -25.28298996 4.67710803 -15.1875 2.125 C-13.92905273 1.80265381 -12.67060547 1.48030762 -11.37402344 1.14819336 C-10.19227539 0.85436768 -9.01052734 0.56054199 -7.79296875 0.2578125 C-6.7258667 -0.0088623 -5.65876465 -0.27553711 -4.55932617 -0.55029297 C-2 -1 -2 -1 0 0 Z " fill="#087830" transform="translate(429,279)"/>
<path d="M0 0 C8.12286082 4.15168442 14.26012762 12.00947579 20.12109375 18.8359375 C22.37280881 21.42938894 24.68394718 23.96386976 27 26.5 C30.45396411 30.28737844 33.86421488 34.10447716 37.22265625 37.9765625 C39.2852491 40.32474513 41.39356478 42.62859124 43.5 44.9375 C47.57784288 49.44900713 51.34852419 54.13919297 55 59 C51.62923762 60.12358746 51.0535095 59.91431446 47.859375 58.7421875 C47.04307617 58.44860352 46.22677734 58.15501953 45.38574219 57.85253906 C44.51594727 57.52995117 43.64615234 57.20736328 42.75 56.875 C40.93785259 56.22037728 39.12534893 55.56673997 37.3125 54.9140625 C36.41402344 54.58825195 35.51554688 54.26244141 34.58984375 53.92675781 C30.99595778 52.64071038 27.37724404 51.43799272 23.75 50.25 C19.97108309 49.00263024 16.21552181 47.73772879 12.5 46.3125 C9.03571511 45.01339316 5.56121325 43.9962918 2 43 C1.66379639 43.47195801 1.32759277 43.94391602 0.98120117 44.43017578 C-6.43519366 54.82143753 -13.97382421 65.07017996 -22 75 C-22.44601562 75.56783203 -22.89203125 76.13566406 -23.3515625 76.72070312 C-24.52254829 78.18443536 -25.75674238 79.59713498 -27 81 C-27.66 81 -28.32 81 -29 81 C-29.33 73.08 -29.66 65.16 -30 57 C-38.40843707 63.40249799 -38.40843707 63.40249799 -46.67578125 69.984375 C-54.62500319 76.47392264 -62.73088999 82.45624147 -71.38818359 87.97167969 C-72.74226274 88.8355666 -74.0853829 89.71659741 -75.42578125 90.6015625 C-91.23371722 100.65350047 -109.32235981 108.65926215 -128 111 C-124.4588326 107.36736334 -120.76728555 104.00577067 -116.875 100.75 C-116.306604 100.27111328 -115.73820801 99.79222656 -115.15258789 99.29882812 C-111.61328775 96.32480887 -108.0352149 93.40323583 -104.4375 90.5 C-91.60795845 80.03526509 -79.52359639 68.57163933 -69.18359375 55.6328125 C-63.4641182 48.73670065 -56.80603451 42.79478731 -50 37 C-48.95928562 36.10717841 -47.91895227 35.21391258 -46.87890625 34.3203125 C-43.87089801 31.73719558 -40.85924349 29.15836786 -37.84667969 26.58056641 C-35.47468931 24.5503885 -33.10413535 22.51853906 -30.73388672 20.48632812 C-29.58214403 19.49902744 -28.43012772 18.51204585 -27.27783203 17.52539062 C-24.20572149 14.89438143 -21.13871599 12.25768625 -18.078125 9.61328125 C-17.43746094 9.06091797 -16.79679688 8.50855469 -16.13671875 7.93945312 C-14.90350019 6.87602553 -13.67166802 5.8109875 -12.44140625 4.74414062 C-8.03349589 0.9475838 -5.91217734 -0.56847859 0 0 Z " fill="#F8FBF9" transform="translate(621,634)"/>
<path d="M0 0 C0.37511719 1.01578125 0.75023437 2.0315625 1.13671875 3.078125 C3.93372026 10.6130358 6.79939145 18.08145552 10.01953125 25.44921875 C12.45856395 31.79459068 11.57944851 35.27407671 9.3125 41.5 C8.74757065 43.11939886 8.18377408 44.73919332 7.62109375 46.359375 C7.34249512 47.15150391 7.06389648 47.94363281 6.77685547 48.75976562 C4.60235787 55.03040987 2.70252156 61.39826615 0.97265625 67.8046875 C0.63105469 69.06539063 0.28945313 70.32609375 -0.0625 71.625 C-0.36285156 72.77226562 -0.66320312 73.91953125 -0.97265625 75.1015625 C-2.02135255 78.06024179 -2.54424155 79.14649514 -5 81 C-13.29474936 82.15763798 -22.17766138 80.61637128 -30.4375 79.625 C-31.58154297 79.49867188 -32.72558594 79.37234375 -33.90429688 79.2421875 C-35.00708984 79.11328125 -36.10988281 78.984375 -37.24609375 78.8515625 C-38.23279053 78.73635254 -39.2194873 78.62114258 -40.23608398 78.50244141 C-43.03716767 77.99324344 -45.40238254 77.14903166 -48 76 C-47.63072311 70.33775431 -45.81928015 66.41185555 -43.2109375 61.40625 C-39.82584015 54.67973398 -38.7487416 47.01861719 -40.5847168 39.65478516 C-41.31592934 34.98035528 -39.46174691 30.90950208 -38 26.5 C-37.72027344 25.56285156 -37.44054687 24.62570312 -37.15234375 23.66015625 C-35.06162999 17.27940647 -32.96293552 14.07829944 -27 11 C-26.12424316 10.53706543 -25.24848633 10.07413086 -24.34619141 9.59716797 C-21.35908641 8.07140208 -18.34438088 6.62204124 -15.3125 5.1875 C-14.28060547 4.68541016 -13.24871094 4.18332031 -12.18554688 3.66601562 C-11.19232422 3.19228516 -10.19910156 2.71855469 -9.17578125 2.23046875 C-8.27770752 1.80145264 -7.37963379 1.37243652 -6.4543457 0.93041992 C-4 0 -4 0 0 0 Z " fill="#F9FBFA" transform="translate(675,351)"/>
<path d="M0 0 C3.00037769 0.66499968 6.00035324 1.33171493 9 2 C9.9590625 2.21350098 10.918125 2.42700195 11.90625 2.64697266 C34.90266644 7.79110089 34.90266644 7.79110089 46.11523438 11.23657227 C51.72389685 12.95601112 57.38221974 14.39393567 63.09033203 15.74462891 C67.89919982 16.89919982 67.89919982 16.89919982 69 18 C68.60775002 22.7069997 67.49823237 26.8277506 65.93066406 31.26953125 C64.85359436 34.42953849 63.8708139 37.61214258 62.89453125 40.8046875 C62.5385083 41.96726074 62.18248535 43.12983398 61.81567383 44.32763672 C61.54650146 45.2095166 61.2773291 46.09139648 61 47 C32.64845728 47.11173995 4.33301312 47.12506209 -24 46 C-23.04480469 45.10269165 -23.04480469 45.10269165 -22.0703125 44.18725586 C-19.46526231 41.43505719 -18.92990365 39.21984427 -18 35.5625 C-17.67128906 34.33273437 -17.34257813 33.10296875 -17.00390625 31.8359375 C-16.67261719 30.57007813 -16.34132813 29.30421875 -16 28 C-15.32999271 25.55763379 -14.64353482 23.11969599 -13.9375 20.6875 C-13.63714844 19.61886719 -13.33679688 18.55023438 -13.02734375 17.44921875 C-12.51880859 16.23685547 -12.51880859 16.23685547 -12 15 C-11.01 14.67 -10.02 14.34 -9 14 C-8.484375 13.484375 -7.96875 12.96875 -7.4375 12.4375 C-6.963125 11.963125 -6.48875 11.48875 -6 11 C-5.34 11 -4.68 11 -4 11 C-2.68 7.37 -1.36 3.74 0 0 Z " fill="#077D31" transform="translate(692,387)"/>
<path d="M0 0 C0.76417236 -0.00636475 1.52834473 -0.01272949 2.31567383 -0.01928711 C10.88777461 0.17285419 17.64249588 3.65939776 23.875 9.5 C30.16255608 17.24493663 32.85482229 24.52088679 31.875 34.5 C29.43788461 45.42254637 24.0364168 52.55105343 14.953125 58.828125 C7.78977083 62.77074629 -1.19023108 62.73523803 -9.125 61.5 C-16.70485211 59.03924232 -22.84873218 54.23206734 -27.125 47.5 C-28.43516461 44.55455586 -29.36076332 41.62749164 -30.125 38.5 C-30.31578125 37.87996094 -30.5065625 37.25992188 -30.703125 36.62109375 C-32.21367911 29.02636336 -30.78326587 20.96689476 -26.6328125 14.4921875 C-24.06734833 11.10258457 -21.40857587 8.20609627 -18.125 5.5 C-17.52558594 4.99082031 -16.92617188 4.48164063 -16.30859375 3.95703125 C-11.12531959 0.33583971 -6.1379044 0.04412182 0 0 Z " fill="#F9FCFA" transform="translate(551.125,507.5)"/>
<path d="M0 0 C6.32182039 0.61748013 12.15053276 2.00752793 18.25 3.75 C24.77033763 5.57571649 31.29015295 7.35765188 37.87207031 8.94897461 C39.53930987 9.35765321 41.20286831 9.78165595 42.86230469 10.22094727 C46.71394537 11.24006891 50.41706074 12.09272928 54.3828125 12.5078125 C58.88236844 13.15150627 62.54338143 13.89276009 66 17 C70.85633484 24.18696488 78 36.10392949 78 45 C66.94826507 43.56092784 56.35292358 40.55814595 45.625 37.625 C43.82305375 37.13751382 42.02097109 36.6505316 40.21875 36.1640625 C36.73901539 35.2242999 33.26414481 34.26883446 29.79150391 33.30322266 C26.77921277 32.46978331 23.76477691 31.69579245 20.72021484 30.98974609 C11.88901156 28.82497844 11.88901156 28.82497844 9.42724609 26.54052734 C8.4609375 24.8984375 8.4609375 24.8984375 7.375 21.375 C6.95605469 20.1375 6.53710938 18.9 6.10546875 17.625 C5.74066406 16.42875 5.37585938 15.2325 5 14 C4.24751478 12.11756141 3.4790346 10.24135527 2.6875 8.375 C1.56703563 5.6045691 0.66597074 2.91444623 0 0 Z " fill="#F6FAF7" transform="translate(682,353)"/>
<path d="M0 0 C2.921875 2.1171875 2.921875 2.1171875 5.75 4.875 C6.51316528 5.60722778 6.51316528 5.60722778 7.29174805 6.35424805 C8.8786102 7.88616243 10.44185632 9.43892104 12 11 C12.4964502 11.49483887 12.99290039 11.98967773 13.50439453 12.49951172 C15.84873306 14.83917249 18.18269009 17.18805516 20.5078125 19.546875 C22.66371392 21.66898486 24.85848697 23.63568601 27.1875 25.5625 C28.115625 26.366875 29.04375 27.17125 30 28 C30 28.66 30 29.32 30 30 C23.72303404 29.76313336 17.84350638 29.28338928 11.765625 27.69140625 C1.19097946 24.62065787 1.19097946 24.62065787 -9.1875 26.68359375 C-12.38386012 28.73458114 -15.26292982 31.15442208 -18.16845703 33.59277344 C-21.3000519 35.99886685 -24.76390023 37.67094275 -28.3125 39.375 C-28.99014404 39.70371094 -29.66778809 40.03242187 -30.3659668 40.37109375 C-39.5551268 44.76399355 -49.06393655 48.64596171 -59 51 C-59.66 50.67 -60.32 50.34 -61 50 C-56.87732158 45.85241692 -52.75122773 41.7082716 -48.62207031 37.56713867 C-47.22075867 36.16082925 -45.82034964 34.75361978 -44.42089844 33.34545898 C-42.39760962 31.30990344 -40.37098872 29.27771469 -38.34375 27.24609375 C-37.7288269 26.62600937 -37.11390381 26.00592499 -36.48034668 25.36705017 C-32.72935657 21.61558788 -28.86115789 18.06462529 -24.82751465 14.61830139 C-22.98375453 12.98561431 -21.26979221 11.2739434 -19.5625 9.5 C-16.96132418 6.89289895 -14.30289609 4.39028702 -11.5 2 C-10.8090625 1.401875 -10.118125 0.80375 -9.40625 0.1875 C-5.85745984 -1.56385099 -3.77010793 -1.04542294 0 0 Z " fill="#F5F9F6" transform="translate(498,662)"/>
<path d="M0 0 C4.26615808 2.98417401 7.03216856 7.02136837 9.33984375 11.63671875 C10.27181558 19.19866737 9.75439901 24.67020692 5.0625 30.79296875 C1.23310479 34.89155047 -2.82241154 37.36497849 -8.515625 37.91015625 C-14.83880866 38.10289104 -19.84409907 38.17294045 -25.00390625 34.2265625 C-30.35305684 29.09188257 -31.97745417 25.01806622 -32.22265625 17.51171875 C-31.95541242 10.91501585 -30.7531162 7.65638581 -26.01171875 3.02734375 C-17.7538976 -4.54533067 -9.82332098 -5.28249464 0 0 Z " fill="#F8FBF9" transform="translate(194.66015625,584.36328125)"/>
<path d="M0 0 C4.2426885 0.56184118 8.35548232 1.24659675 12.5 2.3125 C13.53898438 2.57933594 14.57796875 2.84617187 15.6484375 3.12109375 C16.75445313 3.41113281 17.86046875 3.70117188 19 4 C20.72089844 4.45052734 20.72089844 4.45052734 22.4765625 4.91015625 C30.18492998 6.94866457 37.87199971 9.05951297 45.55102539 11.20556641 C50.7326863 12.6534747 55.92405258 14.05926491 61.12890625 15.421875 C63 16 63 16 64 17 C63.94629469 23.13583124 62.34696845 28.38768414 60 34 C54.5317136 33.33915795 49.37135057 32.13784206 44.0625 30.6875 C42.3622104 30.23090888 40.66168582 29.77519198 38.9609375 29.3203125 C38.12014648 29.09504883 37.27935547 28.86978516 36.41308594 28.63769531 C33.01379793 27.73938084 29.6022293 26.9003408 26.1875 26.0625 C23.45736994 25.3785774 20.7283201 24.69105096 18 24 C16.60539551 23.64953613 16.60539551 23.64953613 15.18261719 23.29199219 C12.13883145 22.5210043 9.10044886 21.7311455 6.0625 20.9375 C5.08369873 20.69201416 4.10489746 20.44652832 3.09643555 20.19360352 C2.18933838 19.95311279 1.28224121 19.71262207 0.34765625 19.46484375 C-0.46695068 19.254646 -1.28155762 19.04444824 -2.12084961 18.82788086 C-2.74096924 18.55468018 -3.36108887 18.28147949 -4 18 C-5.35814777 13.9255567 -3.94745762 11.18531884 -2.5625 7.3125 C-2.31951172 6.61060547 -2.07652344 5.90871094 -1.82617188 5.18554688 C-1.2255056 3.45421468 -0.61380281 1.72671863 0 0 Z " fill="#F5FAF6" transform="translate(686,329)"/>
<path d="M0 0 C147.51 0 295.02 0 447 0 C447 0.33 447 0.66 447 1 C441.06 1.33 435.12 1.66 429 2 C429 2.33 429 2.66 429 3 C283.14 3 137.28 3 -13 3 C-13 2.67 -13 2.34 -13 2 C-6.565 1.505 -6.565 1.505 0 1 C0 0.67 0 0.34 0 0 Z " fill="#13AE46" transform="translate(289,28)"/>
<path d="M0 0 C4.56312755 2.99862668 5.77347965 7.92626474 7 13 C7.4375 16.3125 7.4375 16.3125 7 19 C4.01853361 22.73515552 1.3948456 23.75384504 -3.19921875 24.81640625 C-4.40900391 25.10580078 -5.61878906 25.39519531 -6.86523438 25.69335938 C-8.75725586 26.12358398 -8.75725586 26.12358398 -10.6875 26.5625 C-13.17134967 27.14382652 -15.65444309 27.728395 -18.13671875 28.31640625 C-19.3172583 28.59540771 -20.49779785 28.87440918 -21.71411133 29.16186523 C-25.25819829 30.06585889 -28.67523168 31.15834987 -32.10107422 32.43408203 C-35.49847071 33.44657433 -38.47997818 33.30877384 -42 33 C-45.87995626 29.12004374 -46.70091673 22.98142668 -47.5 17.6875 C-46.77523522 13.79188933 -45.01479782 12.52991928 -42 10 C-39.35911161 8.79098919 -36.65430887 8.05317866 -33.84765625 7.32421875 C-33.06990341 7.10933304 -32.29215057 6.89444733 -31.49082947 6.67304993 C-29.85322274 6.22419579 -28.21338099 5.78342572 -26.5715332 5.3503418 C-24.06887815 4.68918499 -21.57447453 4.00213812 -19.08007812 3.31054688 C-17.48218879 2.87606411 -15.88389354 2.44307088 -14.28515625 2.01171875 C-13.54435318 1.80866623 -12.80355011 1.60561371 -12.04029846 1.39640808 C-7.94106349 0.32485157 -4.23713792 -0.34878277 0 0 Z " fill="#F4F9F6" transform="translate(424,256)"/>
<path d="M0 0 C1.65 0.33 3.3 0.66 5 1 C6.72219434 6.94939863 4.8779395 11.36618149 3 17 C-0.06592091 26.74962848 1.9405287 37.56382843 5 47 C6.08765112 50.57609807 7.1384275 54.16243107 8.1875 57.75 C8.46158691 58.64992676 8.73567383 59.54985352 9.01806641 60.47705078 C10.48899775 65.47376841 11.52558124 69.78514202 11 75 C9 77 9 77 5.375 77.125 C4.26125 77.08375 3.1475 77.0425 2 77 C-0.35991923 70.19497918 -2.28615498 63.35317378 -4.0625 56.375 C-4.57346586 54.38261926 -5.08516691 52.39042691 -5.59765625 50.3984375 C-5.83693848 49.46040283 -6.0762207 48.52236816 -6.32275391 47.5559082 C-6.87789915 45.46080525 -7.50523668 43.38495528 -8.15234375 41.31640625 C-11.47744306 28.30714674 -8.8247869 15.81964057 -3 4 C-1.30078125 1.5546875 -1.30078125 1.5546875 0 0 Z " fill="#8CC29C" transform="translate(393,318)"/>
<path d="M0 0 C2.31 0 4.62 0 7 0 C5.36959185 6.01077136 3.72852643 12.01663928 2 18 C6.29 19.32 10.58 20.64 15 22 C10.18072289 25.61445783 10.18072289 25.61445783 7 26 C5.32846265 25.69201986 3.66085575 25.36117456 2 25 C2.29132812 25.53625 2.58265625 26.0725 2.8828125 26.625 C5.75594775 32.11829004 8.13735554 37.70309014 10.3125 43.5 C10.57885254 44.20640625 10.84520508 44.9128125 11.11962891 45.640625 C13 50.73725788 13 50.73725788 13 53 C16.96 53.66 20.92 54.32 25 55 C25.33 55.99 25.66 56.98 26 58 C28.00016466 59.20882096 28.00016466 59.20882096 30 60 C29.34 60.99 28.68 61.98 28 63 C22.60204011 61.84941444 17.29012667 60.57578241 12 59 C11.87882813 59.61488281 11.75765625 60.22976563 11.6328125 60.86328125 C11.46523438 61.67152344 11.29765625 62.47976563 11.125 63.3125 C10.96257813 64.11300781 10.80015625 64.91351563 10.6328125 65.73828125 C10 68 10 68 8 71 C7.01 71 6.02 71 5 71 C4.34 71.99 3.68 72.98 3 74 C2.34 74 1.68 74 1 74 C1.89917769 68.87277403 3.590801 64.07680807 5.2578125 59.15625 C6.37672606 54.39792288 5.06565924 50.83846081 3.22265625 46.41796875 C2.87396484 45.56783203 2.52527344 44.71769531 2.16601562 43.84179688 C1.43506816 42.08364183 0.70330789 40.32582448 -0.02929688 38.56835938 C-2.13924395 33.41977766 -3.79446661 28.43436782 -5 23 C-7.31 22.67 -9.62 22.34 -12 22 C-11.25 20.0625 -11.25 20.0625 -10 18 C-9.34644531 17.88785156 -8.69289063 17.77570313 -8.01953125 17.66015625 C-7.35308594 17.44230469 -6.68664062 17.22445313 -6 17 C-4.96021615 14.92247437 -4.96021615 14.92247437 -4.4375 12.375 C-3.29647001 8.01150069 -1.8712007 4.09882059 0 0 Z " fill="#139938" transform="translate(680,328)"/>
<path d="M0 0 C0.33 0 0.66 0 1 0 C1 163.35 1 326.7 1 495 C0.67 495 0.34 495 0 495 C-0.33 473.88 -0.66 452.76 -1 431 C-1.33 431 -1.66 431 -2 431 C-2 419.12 -2 407.24 -2 395 C-1.67 395 -1.34 395 -1 395 C-0.67 264.65 -0.34 134.3 0 0 Z " fill="#93D1A1" transform="translate(44,261)"/>
<path d="M0 0 C2.83890528 2.39109449 3.56538567 4.29451227 4.31640625 7.89453125 C4.52330078 8.85037109 4.73019531 9.80621094 4.94335938 10.79101562 C5.14767578 11.78810547 5.35199219 12.78519531 5.5625 13.8125 C5.97769581 15.77793157 6.39559267 17.74279482 6.81640625 19.70703125 C7.01395508 20.62935547 7.21150391 21.55167969 7.41503906 22.50195312 C8.09447457 25.40344902 9.02899135 28.18451828 10 31 C10.125 33.875 10.125 33.875 10 36 C3.35590042 36.21432579 -2.53205867 35.51233701 -9 34 C-6.74622259 22.43793866 -3.72510939 11.17532816 0 0 Z " fill="#067E2F" transform="translate(487,376)"/>
<path d="M0 0 C2.31 0 4.62 0 7 0 C5.36959185 6.01077136 3.72852643 12.01663928 2 18 C6.29 19.32 10.58 20.64 15 22 C10.18072289 25.61445783 10.18072289 25.61445783 7 26 C4.25 25.5625 4.25 25.5625 2 25 C2.515625 25.928125 3.03125 26.85625 3.5625 27.8125 C5 31 5 31 4 34 C2.515 34.495 2.515 34.495 1 35 C1.33 36.32 1.66 37.64 2 39 C1.34 39 0.68 39 0 39 C-0.83719383 36.70967689 -1.6698929 34.41789043 -2.5 32.125 C-2.73847656 31.47402344 -2.97695313 30.82304687 -3.22265625 30.15234375 C-5 25.2265625 -5 25.2265625 -5 23 C-7.31 22.67 -9.62 22.34 -12 22 C-11.25 20.0625 -11.25 20.0625 -10 18 C-9.34644531 17.88785156 -8.69289063 17.77570313 -8.01953125 17.66015625 C-7.35308594 17.44230469 -6.68664062 17.22445313 -6 17 C-4.96021615 14.92247437 -4.96021615 14.92247437 -4.4375 12.375 C-3.29647001 8.01150069 -1.8712007 4.09882059 0 0 Z " fill="#118E35" transform="translate(680,328)"/>
<path d="M0 0 C0.33 0 0.66 0 1 0 C1.75104411 5.44506977 2.13510652 10.81484721 2.25 16.3125 C2.27578125 17.48425781 2.3015625 18.65601563 2.328125 19.86328125 C1.97529541 23.23616416 1.28681547 24.56273614 -1 27 C-0.34 27.99 0.32 28.98 1 30 C-1.76317623 31.37021794 -4.53658478 32.71830176 -7.3125 34.0625 C-8.09818359 34.45244141 -8.88386719 34.84238281 -9.69335938 35.24414062 C-10.45068359 35.60830078 -11.20800781 35.97246094 -11.98828125 36.34765625 C-12.68477783 36.68804932 -13.38127441 37.02844238 -14.09887695 37.37915039 C-16 38 -16 38 -19 37 C-20.6875 34.9375 -20.6875 34.9375 -22 33 C-19.44113496 31.67997444 -16.87832932 30.36886218 -14.3125 29.0625 C-13.59126953 28.68931641 -12.87003906 28.31613281 -12.12695312 27.93164062 C-8.43494258 26.06034761 -5.16306904 24.51730444 -1 24 C-1.01160156 22.77023437 -1.02320313 21.54046875 -1.03515625 20.2734375 C-1.04454022 18.64062653 -1.05363977 17.0078139 -1.0625 15.375 C-1.07087891 14.56675781 -1.07925781 13.75851562 -1.08789062 12.92578125 C-1.1058955 8.49658082 -0.89622662 4.36116576 0 0 Z " fill="#18A43E" transform="translate(670,322)"/>
<path d="M0 0 C1.04465424 -0.00043808 2.08930847 -0.00087616 3.1656189 -0.00132751 C6.60157277 0.00075426 10.03703226 0.02405705 13.47290039 0.04760742 C15.86185947 0.05320553 18.25082201 0.05747462 20.63978577 0.06047058 C26.91490252 0.07190232 33.1898096 0.10135541 39.46484375 0.13458252 C45.87309941 0.16531926 52.28138908 0.17898364 58.68969727 0.1940918 C71.25423963 0.22622647 83.81863696 0.2768228 96.38305664 0.34057617 C96.38305664 0.67057617 96.38305664 1.00057617 96.38305664 1.34057617 C95.07284546 1.3442218 93.76263428 1.34786743 92.41271973 1.35162354 C80.05350135 1.38859586 67.69453162 1.44639345 55.33550262 1.52447891 C48.98187744 1.56395514 42.6283909 1.59614314 36.2746582 1.61157227 C30.14071094 1.62673752 24.0071448 1.66118173 17.87336731 1.70888519 C15.53550025 1.72370016 13.19757877 1.73161725 10.85966492 1.73246002 C7.57994146 1.73483096 4.30127014 1.76192284 1.02172852 1.79467773 C0.05931244 1.78964737 -0.90310364 1.784617 -1.89468384 1.7794342 C-9.23382151 1.89252348 -15.85212481 3.80451266 -21.11694336 9.21557617 C-25.2816753 14.33707085 -24.08194856 21.13189567 -23.61694336 27.34057617 C-24.27694336 27.34057617 -24.93694336 27.34057617 -25.61694336 27.34057617 C-27.23065874 22.49943002 -27.59383969 17.15446234 -25.89819336 12.27026367 C-22.86083988 6.61196807 -18.57789632 3.40412026 -12.73345757 0.96982384 C-8.56571501 -0.26926176 -4.31345817 -0.04769943 0 0 Z " fill="#7ABE8D" transform="translate(247.616943359375,664.659423828125)"/>
<path d="M0 0 C0.33 0 0.66 0 1 0 C1 2.97 1 5.94 1 9 C1.66 9 2.32 9 3 9 C3 39.03 3 69.06 3 100 C2.67 100 2.34 100 2 100 C1.505 68.32 1.505 68.32 1 36 C0.67 36 0.34 36 0 36 C0 24.12 0 12.24 0 0 Z " fill="#CAE7D0" transform="translate(42,656)"/>
<path d="M0 0 C11.88 0 23.76 0 36 0 C36 0.66 36 1.32 36 2 C32.99395038 3.50302481 30.22334028 3.12994577 26.875 3.1328125 C25.82094971 3.13424759 25.82094971 3.13424759 24.74560547 3.13571167 C23.25943919 3.13639238 21.77326994 3.1345457 20.28710938 3.13037109 C18.00904681 3.12502125 15.73118141 3.13031972 13.453125 3.13671875 C12.01041623 3.13605795 10.56770758 3.13477675 9.125 3.1328125 C7.80757812 3.13168457 6.49015625 3.13055664 5.1328125 3.12939453 C2 3 2 3 0 2 C0 1.34 0 0.68 0 0 Z " fill="#28A049" transform="translate(586,810)"/>
<path d="M0 0 C0.66 0 1.32 0 2 0 C2.721875 0.7425 3.44375 1.485 4.1875 2.25 C12.05631895 9.9439563 19.53037357 9.60362752 29.99609375 9.609375 C31.55552375 9.62437 33.11493795 9.64109991 34.67433167 9.65948486 C38.75955976 9.70302306 42.84457367 9.72312716 46.92999268 9.73822021 C51.10645136 9.75784041 55.28268037 9.79980475 59.45898438 9.83984375 C67.63926258 9.91499906 75.81945025 9.965379 84 10 C84 10.33 84 10.66 84 11 C74.88098422 11.09291788 65.76213287 11.16387492 56.64274597 11.20724869 C52.40765593 11.22807209 48.17289116 11.25629279 43.93798828 11.30175781 C39.84660674 11.34540424 35.75553693 11.36917653 31.66394043 11.37950897 C30.10749407 11.3868668 28.55106365 11.40123476 26.99475098 11.42292023 C11.73987882 11.62691434 11.73987882 11.62691434 5 7 C3.06300759 5.08653229 1.58994961 3.23586664 0 1 C0 0.67 0 0.34 0 0 Z " fill="#65B47A" transform="translate(223,693)"/>
<path d="M0 0 C1.65 0 3.3 0 5 0 C5.33 2.31 5.66 4.62 6 7 C3.3122562 6.85790331 0.62486698 6.7114277 -2.0625 6.5625 C-2.81466797 6.52318359 -3.56683594 6.48386719 -4.34179688 6.44335938 C-8.94154422 6.18449913 -13.47466042 5.88859074 -18 5 C-18.33 4.34 -18.66 3.68 -19 3 C-17.906875 2.855625 -16.81375 2.71125 -15.6875 2.5625 C-12.06877013 2.11711896 -12.06877013 2.11711896 -9 1 C-6.73828125 1.12109375 -6.73828125 1.12109375 -4.3125 1.4375 C-3.50425781 1.53933594 -2.69601562 1.64117187 -1.86328125 1.74609375 C-1.24839844 1.82988281 -0.63351562 1.91367187 0 2 C0 1.34 0 0.68 0 0 Z " fill="#179B39" transform="translate(653,431)"/>
<path d="M0 0 C0.33 0 0.66 0 1 0 C1.75104411 5.44506977 2.13510652 10.81484721 2.25 16.3125 C2.28867187 18.07013672 2.28867187 18.07013672 2.328125 19.86328125 C1.97529541 23.23616416 1.28681547 24.56273614 -1 27 C-0.34 27.99 0.32 28.98 1 30 C-1.375 31.0625 -1.375 31.0625 -4 32 C-4.66 31.67 -5.32 31.34 -6 31 C-6 30.34 -6 29.68 -6 29 C-6.66 28.67 -7.32 28.34 -8 28 C-6.1875 26 -6.1875 26 -4 24 C-3.01 24 -2.02 24 -1 24 C-1.01160156 22.77023437 -1.02320313 21.54046875 -1.03515625 20.2734375 C-1.04454022 18.64062653 -1.05363977 17.0078139 -1.0625 15.375 C-1.07087891 14.56675781 -1.07925781 13.75851562 -1.08789062 12.92578125 C-1.1058955 8.49658082 -0.89622662 4.36116576 0 0 Z " fill="#18A440" transform="translate(670,322)"/>
<path d="M0 0 C0.99 0 1.98 0 3 0 C2.99476318 0.57854736 2.98952637 1.15709473 2.98413086 1.75317383 C2.7932647 16.90793895 2.7932647 16.90793895 4 32 C3.01 31.67 2.02 31.34 1 31 C-0.02250405 24.30139078 -0.11756273 17.7684802 -0.0625 11 C-0.05573242 9.40865234 -0.05573242 9.40865234 -0.04882812 7.78515625 C-0.03713843 5.19004402 -0.02075276 2.59505291 0 0 Z " fill="#1A9D34" transform="translate(474,527)"/>
<path d="M0 0 C-1.19625 0.515625 -2.3925 1.03125 -3.625 1.5625 C-8.16139695 3.91141728 -11.85214677 6.21903781 -14 11 C-14.48509118 15.71157706 -14.35332464 20.28246175 -14 25 C-14.66 25 -15.32 25 -16 25 C-17.61371538 20.15885385 -17.97689633 14.81388617 -16.28125 9.9296875 C-12.9555909 3.73430643 -7.23534209 -2.09087848 0 0 Z " fill="#82CD94" transform="translate(238,667)"/>
<path d="M0 0 C2.64590014 -0.02684679 5.29153096 -0.04676357 7.9375 -0.0625 C8.69224609 -0.07087891 9.44699219 -0.07925781 10.22460938 -0.08789062 C12.14994313 -0.09652441 14.07535581 -0.05224333 16 0 C16.33 0.33 16.66 0.66 17 1 C18.67884238 1.3931648 20.36850045 1.74085452 22.0625 2.0625 C22.98160156 2.23910156 23.90070312 2.41570312 24.84765625 2.59765625 C25.55792969 2.73042969 26.26820313 2.86320312 27 3 C26.01 3.495 26.01 3.495 25 4 C24.67 4.66 24.34 5.32 24 6 C22.4840625 5.5359375 22.4840625 5.5359375 20.9375 5.0625 C14.44151109 3.40619903 7.66917508 3.32998523 1 3 C0.67 2.01 0.34 1.02 0 0 Z " fill="#47B265" transform="translate(573,258)"/>
<path d="M0 0 C1.02158203 0.00644531 2.04316406 0.01289063 3.09570312 0.01953125 C4.15080078 0.03628906 5.20589844 0.05304688 6.29296875 0.0703125 C7.36740234 0.07933594 8.44183594 0.08835937 9.54882812 0.09765625 C12.19293729 0.12115944 14.83658747 0.15401675 17.48046875 0.1953125 C17.48046875 0.5253125 17.48046875 0.8553125 17.48046875 1.1953125 C16.6090625 1.23269531 15.73765625 1.27007812 14.83984375 1.30859375 C7.63983641 1.70599675 1.10193152 2.55840395 -5.80078125 4.671875 C-8.97412146 5.28283418 -11.38429281 4.88690922 -14.51953125 4.1953125 C-9.5964966 1.64262787 -5.62157708 -0.06281092 0 0 Z " fill="#1BA83C" transform="translate(570.51953125,258.8046875)"/>
<path d="M0 0 C1.5159375 0.309375 1.5159375 0.309375 3.0625 0.625 C-1.38131694 5.21216587 -6.13978499 9.41262713 -10.9375 13.625 C-10.9375 7.26672104 -6.17980469 0.98092138 0 0 Z " fill="#C8E7CE" transform="translate(576.9375,643.375)"/>
<path d="M0 0 C0.66 0.66 1.32 1.32 2 2 C-0.11629674 4.34135898 -2.24441629 6.67164059 -4.375 9 C-4.97828125 9.66773438 -5.5815625 10.33546875 -6.203125 11.0234375 C-6.78320312 11.65507812 -7.36328125 12.28671875 -7.9609375 12.9375 C-8.76217041 13.81728516 -8.76217041 13.81728516 -9.57958984 14.71484375 C-11 16 -11 16 -13 16 C-11.3383196 11.87582937 -8.37661982 8.93445961 -5.375 5.75 C-4.859375 5.19570313 -4.34375 4.64140625 -3.8125 4.0703125 C-2.54574965 2.7097288 -1.27342185 1.35434163 0 0 Z " fill="#21A73D" transform="translate(531,278)"/>
<path d="M0 0 C3 1 3 1 4 3 C4.07065617 5.04055005 4.08421976 7.08334257 4.0625 9.125 C4.05347656 10.22070312 4.04445313 11.31640625 4.03515625 12.4453125 C4.02355469 13.28835938 4.01195312 14.13140625 4 15 C3.01 15.33 2.02 15.66 1 16 C0.67 10.72 0.34 5.44 0 0 Z " fill="#22A244" transform="translate(390,551)"/>
<path d="M0 0 C5.17226615 4.6873662 8.98925493 10.31728181 13 16 C12.34 16.99 11.68 17.98 11 19 C10.16121545 17.71186658 9.32913217 16.41936744 8.5 15.125 C8.0359375 14.40570313 7.571875 13.68640625 7.09375 12.9453125 C6 11 6 11 6 9 C5.34 9 4.68 9 4 9 C0 3.70588235 0 3.70588235 0 0 Z " fill="#20AC42" transform="translate(929,122)"/>
<path d="M0 0 C0 0.66 0 1.32 0 2 C2.64 2 5.28 2 8 2 C8 2.33 8 2.66 8 3 C-11.305 2.505 -11.305 2.505 -31 2 C-31 1.67 -31 1.34 -31 1 C-27.06732611 0.8568968 -23.13462735 0.71449972 -19.2019043 0.57275391 C-17.20685496 0.50069904 -15.21182579 0.42808663 -13.21679688 0.35546875 C-11.33637695 0.28779297 -11.33637695 0.28779297 -9.41796875 0.21875 C-7.68196411 0.1559082 -7.68196411 0.1559082 -5.91088867 0.09179688 C-3.94133398 0.02968561 -1.97053381 0 0 0 Z " fill="#21AD46" transform="translate(753,29)"/>
<path d="M0 0 C0.33 0 0.66 0 1 0 C2.06059488 7.68931285 2.09928082 15.24506486 2 23 C1.01 23 0.02 23 -1 23 C-1.02714434 20.2915983 -1.04690846 17.58347279 -1.0625 14.875 C-1.07087891 14.11445313 -1.07925781 13.35390625 -1.08789062 12.5703125 C-1.10646509 8.2610356 -0.86117265 4.24483526 0 0 Z " fill="#2BAF4F" transform="translate(670,322)"/>
<path d="M0 0 C0.99 0.66 1.98 1.32 3 2 C-0.63 5.63 -4.26 9.26 -8 13 C-8.33 12.01 -8.66 11.02 -9 10 C-6.03 6.7 -3.06 3.4 0 0 Z " fill="#25AF45" transform="translate(117,97)"/>
<path d="M0 0 C0.33 0 0.66 0 1 0 C1.125 3.375 1.125 3.375 1 7 C-1 9 -1 9 -4.625 9.125 C-5.73875 9.08375 -6.8525 9.0425 -8 9 C-9.25664978 6.09399739 -10 4.20395416 -10 1 C-9.34 1 -8.68 1 -8 1 C-8 1.99 -8 2.98 -8 4 C-7.34 4 -6.68 4 -6 4 C-5.67 4.99 -5.34 5.98 -5 7 C-3.68 7 -2.36 7 -1 7 C-0.67 4.69 -0.34 2.38 0 0 Z " fill="#69AC7D" transform="translate(403,386)"/>
<path d="M0 0 C5.04806914 0.35991718 7.52239866 3.04398041 10.8125 6.5625 C11.31458984 7.08263672 11.81667969 7.60277344 12.33398438 8.13867188 C13.56529127 9.4168857 14.7839407 10.70727147 16 12 C15.34 12.66 14.68 13.32 14 14 C9.33333333 9.33333333 4.66666667 4.66666667 0 0 Z " fill="#2FB246" transform="translate(901,94)"/>
<path d="M0 0 C6.27 0.33 12.54 0.66 19 1 C19 1.33 19 1.66 19 2 C8.96557967 2.87801178 -0.93605753 3.1176305 -11 3 C-11 2.67 -11 2.34 -11 2 C-7.37 2 -3.74 2 0 2 C0 1.34 0 0.68 0 0 Z " fill="#05952A" transform="translate(445,756)"/>
<path d="M0 0 C0.73734375 0.20947266 1.4746875 0.41894531 2.234375 0.63476562 C7.64576023 2.29866784 7.64576023 2.29866784 9.5 4.98828125 C9.7475 5.89126953 9.7475 5.89126953 10 6.8125 C6.59687262 5.75374926 3.98646769 4.80347846 1 2.8125 C-1.30101925 2.22186404 -3.60550768 1.80459054 -5.94140625 1.375 C-8 0.8125 -8 0.8125 -10 -1.1875 C-6.65933227 -2.85783387 -3.39542055 -1.05364886 0 0 Z " fill="#1BAB39" transform="translate(824,44.1875)"/>
<path d="M0 0 C-0.33 1.32 -0.66 2.64 -1 4 C-3.97 3.67 -6.94 3.34 -10 3 C-10.33 2.01 -10.66 1.02 -11 0 C-6.42393097 -1.72873719 -4.45846882 -2.22923441 0 0 Z " fill="#21A744" transform="translate(722,358)"/>
<path d="M0 0 C0.33 0 0.66 0 1 0 C0.47594437 6.69007182 -0.10463925 13.3487487 -1 20 C-1.33 20 -1.66 20 -2 20 C-3.38864912 6.79715149 -3.38864912 6.79715149 -2 2 C-1.34 1.34 -0.68 0.68 0 0 Z " fill="#22AC44" transform="translate(49,231)"/>
<path d="M0 0 C2 2 2 2 2 6 C4.31 6 6.62 6 9 6 C8.67 6.99 8.34 7.98 8 9 C5.03 8.67 2.06 8.34 -1 8 C-0.67 5.36 -0.34 2.72 0 0 Z " fill="#2AA947" transform="translate(471,407)"/>
<path d="M0 0 C1.60568666 0.28317926 3.20952047 0.57687791 4.8125 0.875 C6.15248047 1.11863281 6.15248047 1.11863281 7.51953125 1.3671875 C10 2 10 2 13 4 C12.01 4.66 11.02 5.32 10 6 C10 6.33 10 6.66 10 7 C7.69 6.67 5.38 6.34 3 6 C3 5.01 3 4.02 3 3 C2.01 2.67 1.02 2.34 0 2 C0 1.34 0 0.68 0 0 Z " fill="#0D992A" transform="translate(704,353)"/>
<path d="M0 0 C2.60727722 0.42304498 5.20982778 0.86268305 7.8125 1.3125 C8.91948242 1.48942383 8.91948242 1.48942383 10.04882812 1.66992188 C16.77217956 2.85639566 16.77217956 2.85639566 19 6 C12.04339229 5.42978625 5.68572695 3.98697306 -1 2 C-0.67 1.34 -0.34 0.68 0 0 Z " fill="#169434" transform="translate(217,980)"/>
<path d="M0 0 C2.69082872 0.17635452 5.32851446 0.61835921 8 1 C8 1.33 8 1.66 8 2 C6.02 2.33 4.04 2.66 2 3 C4.97 3.495 4.97 3.495 8 4 C8 4.33 8 4.66 8 5 C2.88689982 5.08970351 -1.96109772 5.0283474 -7 4 C-7.33 3.34 -7.66 2.68 -8 2 C-6.865625 1.855625 -5.73125 1.71125 -4.5625 1.5625 C-1.19222799 1.38828522 -1.19222799 1.38828522 0 0 Z " fill="#31A250" transform="translate(642,432)"/>
<path d="M0 0 C2.41760876 0.11426509 4.83347218 0.24099661 7.25 0.375 C7.93191406 0.4059375 8.61382813 0.436875 9.31640625 0.46875 C12.98739038 0.68259374 15.86251616 1.01077055 19 3 C12.96496237 4.50875941 7.10261631 3.64186094 1 3 C0.67 2.01 0.34 1.02 0 0 Z " fill="#22A144" transform="translate(545,422)"/>
<path d="M0 0 C-0.33 0.99 -0.66 1.98 -1 3 C-1.99 3 -2.98 3 -4 3 C-4 3.66 -4 4.32 -4 5 C-8.95 7.475 -8.95 7.475 -14 10 C-14 9.01 -14 8.02 -14 7 C-11.4453125 5.17578125 -11.4453125 5.17578125 -8.125 3.3125 C-7.03445312 2.68988281 -5.94390625 2.06726562 -4.8203125 1.42578125 C-2 0 -2 0 0 0 Z " fill="#1CAF3F" transform="translate(171,59)"/>
<path d="M0 0 C0.66 0.66 1.32 1.32 2 2 C-0.31 4.64 -2.62 7.28 -5 10 C-5.99 9.67 -6.98 9.34 -8 9 C-7.04270084 7.87411986 -6.08412105 6.7493285 -5.125 5.625 C-4.59132813 4.99851562 -4.05765625 4.37203125 -3.5078125 3.7265625 C-2.38567993 2.44163349 -1.20628025 1.20628025 0 0 Z " fill="#E0F0E4" transform="translate(700,772)"/>
<path d="M0 0 C1.67557379 0.28520405 3.34817245 0.59955696 5 1 C5 1.99 5 2.98 5 4 C-0.28 3.67 -5.56 3.34 -11 3 C-6.5110239 -0.36673207 -5.37223486 -0.37699894 0 0 Z " fill="#3DAE5A" transform="translate(557,505)"/>
<path d="M0 0 C0.7528125 0.08765625 1.505625 0.1753125 2.28125 0.265625 C4.6101584 0.77404866 6.42229716 1.59781933 8.5 2.75 C2.5853971 4.34854133 -2.65284453 3.00890714 -8.5 1.75 C-5.42970153 -0.06426728 -3.52714249 -0.45901169 0 0 Z " fill="#1C9C3D" transform="translate(570.5,778.25)"/>
<path d="M0 0 C0.33 4.62 0.66 9.24 1 14 C0.01 14 -0.98 14 -2 14 C-3.00496852 10.98509443 -3.10335303 8.95818308 -3.0625 5.8125 C-3.05347656 4.91144531 -3.04445312 4.01039063 -3.03515625 3.08203125 C-3.02355469 2.39496094 -3.01195312 1.70789063 -3 1 C-1 0 -1 0 0 0 Z " fill="#3BAE5B" transform="translate(238,514)"/>
<path d="M0 0 C0.99 0.33 1.98 0.66 3 1 C4.1875 4.5625 4.1875 4.5625 5 8 C4.34 8.66 3.68 9.32 3 10 C2.67 8.35 2.34 6.7 2 5 C1.34 5 0.68 5 0 5 C0 5.99 0 6.98 0 8 C-0.66 7.67 -1.32 7.34 -2 7 C-2 5.68 -2 4.36 -2 3 C-1.34 3 -0.68 3 0 3 C0 2.01 0 1.02 0 0 Z " fill="#1EA23E" transform="translate(683,360)"/>
<path d="M0 0 C6.625 0.75 6.625 0.75 10 3 C7.36095629 4.41377341 4.92879371 5.37240135 2 6 C2 5.34 2 4.68 2 4 C1.01 3.67 0.02 3.34 -1 3 C-0.67 2.01 -0.34 1.02 0 0 Z " fill="#0F8F2A" transform="translate(685,348)"/>
<path d="M0 0 C-1.39600735 2.7920147 -3.00416384 3.00162933 -5.875 4.125 C-6.75929688 4.47820313 -7.64359375 4.83140625 -8.5546875 5.1953125 C-11 6 -11 6 -14 6 C-14 5.34 -14 4.68 -14 4 C-4.58997722 -0.59225513 -4.58997722 -0.59225513 0 0 Z " fill="#0F9333" transform="translate(842,968)"/>
<path d="M0 0 C4.875 4.75 4.875 4.75 6 7 C4.5608866 6.71640113 3.12374482 6.42278601 1.6875 6.125 C0.88699219 5.96257813 0.08648438 5.80015625 -0.73828125 5.6328125 C-3 5 -3 5 -6 3 C-4.35 3 -2.7 3 -1 3 C-0.67 2.01 -0.34 1.02 0 0 Z " fill="#C4E2CC" transform="translate(670,687)"/>
<path d="M0 0 C0.33 0.99 0.66 1.98 1 3 C-1.64 5.64 -4.28 8.28 -7 11 C-7.99 10.67 -8.98 10.34 -10 10 C-6.7 6.7 -3.4 3.4 0 0 Z " fill="#28A543" transform="translate(501,481)"/>
<path d="M0 0 C2.1464753 0.11344376 4.29220592 0.24106345 6.4375 0.375 C8.22994141 0.47941406 8.22994141 0.47941406 10.05859375 0.5859375 C11.02925781 0.72257812 11.99992187 0.85921875 13 1 C13.33 1.66 13.66 2.32 14 3 C8.87416389 3.10251672 4.05002222 3.03590199 -1 2 C-0.67 1.34 -0.34 0.68 0 0 Z " fill="#0F9C2F" transform="translate(480,414)"/>
<path d="M0 0 C5.4185766 -0.22577402 9.77487721 0.53329887 15 2 C11.24464902 4.50356732 10.13110586 3.9608592 5.8125 3.125 C4.72582031 2.92132812 3.63914062 2.71765625 2.51953125 2.5078125 C1.68808594 2.34023438 0.85664063 2.17265625 0 2 C0 1.34 0 0.68 0 0 Z " fill="#0C962E" transform="translate(465,784)"/>
<path d="M0 0 C4.14703594 3.04929113 8.27143834 6.5789095 11 11 C10.67 11.99 10.34 12.98 10 14 C8.51207039 12.42489875 7.0349394 10.83959136 5.5625 9.25 C4.73878906 8.36828125 3.91507813 7.4865625 3.06640625 6.578125 C1.16931982 4.21124968 0.37897068 2.9490809 0 0 Z " fill="#1D9D34" transform="translate(646,641)"/>
<path d="M0 0 C1.7290774 -0.02725341 3.45828176 -0.04650987 5.1875 -0.0625 C6.15042969 -0.07410156 7.11335937 -0.08570313 8.10546875 -0.09765625 C10.85576513 -0.00486622 13.32479591 0.37888315 16 1 C16 1.33 16 1.66 16 2 C14.02 2 12.04 2 10 2 C10 2.66 10 3.32 10 4 C8.35 3.67 6.7 3.34 5 3 C5 2.67 5 2.34 5 2 C3.35 1.67 1.7 1.34 0 1 C0 0.67 0 0.34 0 0 Z " fill="#099B3D" transform="translate(595,425)"/>
<path d="M0 0 C0.83144531 0.00451172 1.66289062 0.00902344 2.51953125 0.01367188 C4.55471897 0.02536836 6.58986923 0.04330065 8.625 0.0625 C8.625 0.3925 8.625 0.7225 8.625 1.0625 C3.345 1.0625 -1.935 1.0625 -7.375 1.0625 C-7.375 1.7225 -7.375 2.3825 -7.375 3.0625 C-10.015 2.7325 -12.655 2.4025 -15.375 2.0625 C-15.375 1.7325 -15.375 1.4025 -15.375 1.0625 C-10.20182579 -0.00059567 -5.25130664 -0.05443938 0 0 Z " fill="#05A826" transform="translate(283.375,28.9375)"/>
<path d="M0 0 C0.66 0 1.32 0 2 0 C2.721875 0.7425 3.44375 1.485 4.1875 2.25 C7.30827657 5.30142598 10.16455337 6.96946943 14 9 C12.2578125 9.66796875 12.2578125 9.66796875 10 10 C7.9296875 8.92578125 7.9296875 8.92578125 5.875 7.3125 C5.19179687 6.79300781 4.50859375 6.27351562 3.8046875 5.73828125 C1.93443273 3.93684538 1.00424569 2.37602461 0 0 Z " fill="#90D09E" transform="translate(223,693)"/>
<path d="M0 0 C-0.51949219 0.24234375 -1.03898438 0.4846875 -1.57421875 0.734375 C-5.81271608 2.77136078 -9.43232946 4.87828828 -13 8 C-12.62642278 5.39611102 -12.28877098 4.25705243 -10.29296875 2.48046875 C-9.59816406 2.05378906 -8.90335938 1.62710938 -8.1875 1.1875 C-7.50042969 0.74792969 -6.81335938 0.30835938 -6.10546875 -0.14453125 C-3.60705494 -1.15965671 -2.48957835 -0.91191297 0 0 Z " fill="#96D3A4" transform="translate(238,667)"/>
<path d="M0 0 C0.99 0.33 1.98 0.66 3 1 C1.02 3.31 -0.96 5.62 -3 8 C-3.66 7.34 -4.32 6.68 -5 6 C-3.35 4.02 -1.7 2.04 0 0 Z " fill="#18A13F" transform="translate(491,492)"/>
<path d="M0 0 C0.66 0.33 1.32 0.66 2 1 C2.33 1.99 2.66 2.98 3 4 C3.66 4.33 4.32 4.66 5 5 C2.6875 6.5625 2.6875 6.5625 0 8 C-0.99 7.67 -1.98 7.34 -3 7 C-2.34 7 -1.68 7 -1 7 C-1.020625 6.030625 -1.04125 5.06125 -1.0625 4.0625 C-1 1 -1 1 0 0 Z " fill="#0F9530" transform="translate(661,349)"/>
<path d="M0 0 C0.66 0.33 1.32 0.66 2 1 C2.625 3.0625 2.625 3.0625 3 5 C0.25 5.6875 0.25 5.6875 -3 6 C-5.375 4.5625 -5.375 4.5625 -7 3 C-5.5459375 2.814375 -5.5459375 2.814375 -4.0625 2.625 C-2.5465625 2.315625 -2.5465625 2.315625 -1 2 C-0.67 1.34 -0.34 0.68 0 0 Z " fill="#21A142" transform="translate(737,361)"/>
<path d="M0 0 C6.27 0.66 12.54 1.32 19 2 C19 2.33 19 2.66 19 3 C16.9174133 3.19561869 14.83388144 3.38119313 12.75 3.5625 C11.00976562 3.71912109 11.00976562 3.71912109 9.234375 3.87890625 C6.48128523 3.98198087 4.580018 3.86213473 2 3 C2 2.34 2 1.68 2 1 C1.34 0.67 0.68 0.34 0 0 Z " fill="#078D25" transform="translate(328,790)"/>
<path d="M0 0 C1.051875 0.2475 2.10375 0.495 3.1875 0.75 C-1.02054543 3.55536362 -3.87891734 3.75 -8.8125 3.75 C-5.66311307 0.60061307 -4.55934222 -0.29897326 0 0 Z " fill="#DFF0E3" transform="translate(494.8125,661.25)"/>
<path d="M0 0 C1.60080151 4.00200378 0.29279692 7.04556236 -1 11 C-1.99 11 -2.98 11 -4 11 C-3.71758359 9.53984709 -3.42373386 8.08190207 -3.125 6.625 C-2.96257813 5.81289063 -2.80015625 5.00078125 -2.6328125 4.1640625 C-2 2 -2 2 0 0 Z " fill="#1CA23C" transform="translate(744,655)"/>
<path d="M0 0 C3.63 0 7.26 0 11 0 C11 0.99 11 1.98 11 3 C7.37 3 3.74 3 0 3 C0 2.01 0 1.02 0 0 Z " fill="#308748" transform="translate(433,408)"/>
<path d="M0 0 C1.45792884 -0.05399736 2.91642712 -0.09279177 4.375 -0.125 C5.18710937 -0.14820313 5.99921875 -0.17140625 6.8359375 -0.1953125 C9 0 9 0 11 2 C10.34 2 9.68 2 9 2 C8.67 2.66 8.34 3.32 8 4 C5.36 3.34 2.72 2.68 0 2 C0 1.34 0 0.68 0 0 Z " fill="#2FB050" transform="translate(589,260)"/>
<path d="M0 0 C1.43739513 -0.02712066 2.87493863 -0.04645067 4.3125 -0.0625 C5.51326172 -0.07990234 5.51326172 -0.07990234 6.73828125 -0.09765625 C9 0 9 0 12 1 C12 1.66 12 2.32 12 3 C10.18674449 2.88648483 8.37436643 2.75887039 6.5625 2.625 C5.04849609 2.52058594 5.04849609 2.52058594 3.50390625 2.4140625 C2.67761719 2.27742187 1.85132813 2.14078125 1 2 C0.67 1.34 0.34 0.68 0 0 Z " fill="#11962D" transform="translate(452,782)"/>
<path d="M0 0 C0.66 0 1.32 0 2 0 C2 2.97 2 5.94 2 9 C1.34 9 0.68 9 0 9 C0 10.65 0 12.3 0 14 C-0.33 14 -0.66 14 -1 14 C-0.67 9.38 -0.34 4.76 0 0 Z " fill="#119731" transform="translate(976,775)"/>
<path d="M0 0 C0.90105469 0.11085938 1.80210937 0.22171875 2.73046875 0.3359375 C3.76107422 0.47902344 3.76107422 0.47902344 4.8125 0.625 C4.8125 0.955 4.8125 1.285 4.8125 1.625 C4.20921875 1.75777344 3.6059375 1.89054688 2.984375 2.02734375 C2.18515625 2.20394531 1.3859375 2.38054688 0.5625 2.5625 C-0.22640625 2.73652344 -1.0153125 2.91054688 -1.828125 3.08984375 C-3.95628703 3.572556 -6.07282842 4.08663178 -8.1875 4.625 C-8.1875 3.635 -8.1875 2.645 -8.1875 1.625 C-4.73535147 -0.67643236 -3.95270676 -0.51333854 0 0 Z " fill="#1FA343" transform="translate(616.1875,618.375)"/>
<path d="M0 0 C4.29 0.33 8.58 0.66 13 1 C12.01 2.485 12.01 2.485 11 4 C7.875 4.1875 7.875 4.1875 5 4 C4.67 3.34 4.34 2.68 4 2 C2.68 1.34 1.36 0.68 0 0 Z " fill="#069A30" transform="translate(654,432)"/>
<path d="M0 0 C2.64 0.33 5.28 0.66 8 1 C6.515 3.475 6.515 3.475 5 6 C2.03 5.505 2.03 5.505 -1 5 C-0.01 4.67 0.98 4.34 2 4 C1.34 2.68 0.68 1.36 0 0 Z " fill="#089424" transform="translate(738,362)"/>
<path d="M0 0 C-0.33 0.99 -0.66 1.98 -1 3 C-4.47823115 4.15941038 -6.45895578 3.70820884 -10 3 C-10 2.34 -10 1.68 -10 1 C-6.52674819 -0.1577506 -3.63932552 -0.06866652 0 0 Z " fill="#229E3E" transform="translate(710,355)"/>
<path d="M0 0 C1.45606519 4.52092968 0.27032841 7.51648796 -1 12 C-2.93607846 9.1528258 -2.98954766 7.84582804 -2.75 4.3125 C-2.5025 3.219375 -2.255 2.12625 -2 1 C-1.34 0.67 -0.68 0.34 0 0 Z " fill="#24AF49" transform="translate(53,210)"/>
<path d="M0 0 C1.41655793 -0.0272415 2.83327045 -0.04650467 4.25 -0.0625 C5.43335938 -0.07990234 5.43335938 -0.07990234 6.640625 -0.09765625 C8.90691002 -0.00385306 10.8288895 0.36758937 13 1 C13 1.66 13 2.32 13 3 C11.58249437 2.88490339 10.16598831 2.75746342 8.75 2.625 C7.96109375 2.55539062 7.1721875 2.48578125 6.359375 2.4140625 C3.914123 1.98492887 2.15163097 1.21399362 0 0 Z " fill="#35A54E" transform="translate(497,762)"/>
<path d="M0 0 C0.66 0 1.32 0 2 0 C2.25 7.625 2.25 7.625 0 11 C-1.37432457 7.18243176 -0.67975039 3.92744671 0 0 Z " fill="#0D942B" transform="translate(310,730)"/>
<path d="M0 0 C1.7074998 1.28062485 3.37373596 2.61767557 5 4 C5 4.66 5 5.32 5 6 C5.99 6.33 6.98 6.66 8 7 C7.34 7.66 6.68 8.32 6 9 C3.69 6.69 1.38 4.38 -1 2 C-0.67 1.34 -0.34 0.68 0 0 Z " fill="#0E9B27" transform="translate(629,638)"/>
<path d="M0 0 C0.66 0.33 1.32 0.66 2 1 C0.95125002 3.62187494 0.35068687 4.79371361 -2.125 6.25 C-2.74375 6.4975 -3.3625 6.745 -4 7 C-3.43628586 3.73045798 -2.50037734 2.17424117 0 0 Z " fill="#E2F1E6" transform="translate(198,612)"/>
<path d="M0 0 C2.64 0.33 5.28 0.66 8 1 C7.01 1.33 6.02 1.66 5 2 C5.66 3.32 6.32 4.64 7 6 C5.68 6 4.36 6 3 6 C3 5.34 3 4.68 3 4 C2.34 3.67 1.68 3.34 1 3 C1.99 3 2.98 3 4 3 C4 2.34 4 1.68 4 1 C2.68 0.67 1.36 0.34 0 0 Z " fill="#0E9E2D" transform="translate(718,357)"/>
<path d="M0 0 C0.33 0 0.66 0 1 0 C0.25 6.625 0.25 6.625 -2 10 C-2.66 10 -3.32 10 -4 10 C-2.8905928 6.51329166 -1.73662334 3.22515763 0 0 Z " fill="#23A740" transform="translate(502,317)"/>
<path d="M0 0 C0.33 0.99 0.66 1.98 1 3 C-1.97 5.475 -1.97 5.475 -5 8 C-4.64950425 4.75791433 -4.43778819 3.38472296 -1.9375 1.1875 C-1.298125 0.795625 -0.65875 0.40375 0 0 Z " fill="#179535" transform="translate(358,761)"/>
<path d="M0 0 C0.66 0.33 1.32 0.66 2 1 C0.63016497 4.16115776 0.0109362 4.9927092 -3 7 C-3.33 6.01 -3.66 5.02 -4 4 C-2.68 2.68 -1.36 1.36 0 0 Z " fill="#F0F9F2" transform="translate(533,513)"/>
<path d="M0 0 C0.33 0.99 0.66 1.98 1 3 C0.01 4.485 0.01 4.485 -1 6 C-0.01 6.33 0.98 6.66 2 7 C-0.31 6.67 -2.62 6.34 -5 6 C-3.35 4.02 -1.7 2.04 0 0 Z " fill="#5CB326" transform="translate(582,416)"/>
<path d="M0 0 C2.64 0.33 5.28 0.66 8 1 C7.071875 1.4021875 7.071875 1.4021875 6.125 1.8125 C3.7004767 2.95556848 3.7004767 2.95556848 2 6 C1.34 4.02 0.68 2.04 0 0 Z " fill="#B9DDC2" transform="translate(682,353)"/>
<path d="M0 0 C0.66 0 1.32 0 2 0 C0.7508258 3.45925163 -0.67527795 6.14693203 -3 9 C-3.33 8.01 -3.66 7.02 -4 6 C-2.1875 2.8125 -2.1875 2.8125 0 0 Z " fill="#1EAC43" transform="translate(79,145)"/>
<path d="M0 0 C0.66 0.33 1.32 0.66 2 1 C0.55746343 4.36591866 -1.33264727 6.51047079 -4 9 C-4 5.00095031 -2.27413033 3.19799578 0 0 Z " fill="#20AF44" transform="translate(92,125)"/>
<path d="M0 0 C5.75 1.875 5.75 1.875 8 3 C8 3.66 8 4.32 8 5 C4.62537285 4.45276317 2.91765 3.9451 0 2 C0 1.34 0 0.68 0 0 Z " fill="#1E983C" transform="translate(190,970)"/>
<path d="M0 0 C-0.33 0.66 -0.66 1.32 -1 2 C-4.4375 2.75 -4.4375 2.75 -8 3 C-8.66 2.34 -9.32 1.68 -10 1 C-3.71428571 -1.42857143 -3.71428571 -1.42857143 0 0 Z " fill="#1AA140" transform="translate(388,766)"/>
<path d="M0 0 C1.18851563 0.10183594 2.37703125 0.20367188 3.6015625 0.30859375 C4.51679688 0.39238281 5.43203125 0.47617187 6.375 0.5625 C6.375 0.8925 6.375 1.2225 6.375 1.5625 C4.25131556 1.78384176 2.12595976 1.98920007 0 2.1875 C-1.18335938 2.30351563 -2.36671875 2.41953125 -3.5859375 2.5390625 C-4.58882812 2.54679688 -5.59171875 2.55453125 -6.625 2.5625 C-7.285 1.9025 -7.945 1.2425 -8.625 0.5625 C-5.68113377 -0.90943312 -3.25109964 -0.28686173 0 0 Z " fill="#41AD5B" transform="translate(181.625,621.4375)"/>
<path d="M0 0 C0.66 1.32 1.32 2.64 2 4 C0.75 6.75 0.75 6.75 -1 9 C-1.66 9 -2.32 9 -3 9 C-2.01 6.03 -1.02 3.06 0 0 Z " fill="#22A743" transform="translate(497,327)"/>
<path d="M0 0 C0 0.99 0 1.98 0 3 C-2.64 3.33 -5.28 3.66 -8 4 C-5.52914451 0.29371676 -4.37054922 0 0 0 Z " fill="#1A823A" transform="translate(421,280)"/>
<path d="M0 0 C3.3 0.33 6.6 0.66 10 1 C6.23312136 2.88343932 4.97041037 3.22057835 1 3 C0.67 2.01 0.34 1.02 0 0 Z " fill="#0D932C" transform="translate(440,780)"/>
<path d="M0 0 C2.38564077 0.57584432 4.66682784 1.22227595 7 2 C7 2.66 7 3.32 7 4 C4.69 3.67 2.38 3.34 0 3 C0 2.01 0 1.02 0 0 Z " fill="#22A846" transform="translate(634,680)"/>
<path d="M0 0 C4.40114397 0.50298788 6.71195019 2.08772731 10 5 C9.01 5.33 8.02 5.66 7 6 C6.34 5.67 5.68 5.34 5 5 C5 4.34 5 3.68 5 3 C2.525 2.01 2.525 2.01 0 1 C0 0.67 0 0.34 0 0 Z " fill="#1AA13A" transform="translate(528,562)"/>
<path d="M0 0 C0.66 0.33 1.32 0.66 2 1 C0.84826645 3.46800047 -0.04783565 5.04783565 -2 7 C-2.33 7.66 -2.66 8.32 -3 9 C-3.66 9 -4.32 9 -5 9 C-3.7508258 5.54074837 -2.32472205 2.85306797 0 0 Z " fill="#DFF2E5" transform="translate(344,407)"/>
<path d="M0 0 C4.455 0.99 4.455 0.99 9 2 C9 2.66 9 3.32 9 4 C6.69 3.67 4.38 3.34 2 3 C2 2.34 2 1.68 2 1 C1.34 0.67 0.68 0.34 0 0 Z " fill="#0E982B" transform="translate(726,390)"/>
<path d="M0 0 C0.99 0.33 1.98 0.66 3 1 C2.1875 2.9375 2.1875 2.9375 1 5 C0.01 5.33 -0.98 5.66 -2 6 C-1.125 1.125 -1.125 1.125 0 0 Z " fill="#E5F3EA" transform="translate(643,365)"/>
<path d="M0 0 C2.99324263 1.0975223 3.84610901 1.67682892 5.25 4.625 C5.4975 5.40875 5.745 6.1925 6 7 C5.34 7.66 4.68 8.32 4 9 C4 7.68 4 6.36 4 5 C3.34 5 2.68 5 2 5 C1.34 3.35 0.68 1.7 0 0 Z " fill="#1FA943" transform="translate(943,144)"/>
<path d="M0 0 C0.66 0.33 1.32 0.66 2 1 C0.92598892 3.91517292 0.22189824 5.77810176 -2 8 C-2 4.23312136 -1.76462683 3.08809695 0 0 Z " fill="#E2F3E6" transform="translate(79,140)"/>
<path d="M0 0 C1.32 0.66 2.64 1.32 4 2 C1.69 3.32 -0.62 4.64 -3 6 C-2.42655063 3.13275314 -2.1385485 2.1385485 0 0 Z " fill="#DEF2E2" transform="translate(149,68)"/>
<path d="M0 0 C-0.33 0.66 -0.66 1.32 -1 2 C-3.9375 2.75 -3.9375 2.75 -7 3 C-7.66 2.34 -8.32 1.68 -9 1 C-3.375 -1.125 -3.375 -1.125 0 0 Z " fill="#25B048" transform="translate(200,47)"/>
<path d="M0 0 C3.63 0.33 7.26 0.66 11 1 C11 1.33 11 1.66 11 2 C8.36 2.33 5.72 2.66 3 3 C3 2.34 3 1.68 3 1 C2.01 0.67 1.02 0.34 0 0 Z " fill="#1B9842" transform="translate(249,987)"/>
<path d="M0 0 C2.875 -0.125 2.875 -0.125 6 0 C6.66 0.66 7.32 1.32 8 2 C4.71303767 2.79953138 3.28976808 3.09658936 0 2 C0 1.34 0 0.68 0 0 Z " fill="#269E46" transform="translate(536,771)"/>
<path d="M0 0 C2.72869407 0.03287583 5.2966618 0.56397771 8 1 C4.1496895 3.56687367 2.41430237 2.83288724 -2 2 C-1.34 1.34 -0.68 0.68 0 0 Z " fill="#21A247" transform="translate(520,766)"/>
<path d="M0 0 C0 0.66 0 1.32 0 2 C-0.99 2 -1.98 2 -3 2 C-3 2.66 -3 3.32 -3 4 C-4.875 4.625 -4.875 4.625 -7 5 C-7.66 4.34 -8.32 3.68 -9 3 C-2.25 0 -2.25 0 0 0 Z " fill="#259F42" transform="translate(466,703)"/>
<path d="M0 0 C0.99 0.33 1.98 0.66 3 1 C2.01 1.33 1.02 1.66 0 2 C-0.73323796 4.01508358 -0.73323796 4.01508358 -1 6 C-1.99 6 -2.98 6 -4 6 C-2.68 4.02 -1.36 2.04 0 0 Z " fill="#219F42" transform="translate(623,676)"/>
<path d="M0 0 C-1.98 1.32 -3.96 2.64 -6 4 C-6 2.68 -6 1.36 -6 0 C-3.50907189 -1.24546405 -2.58919267 -0.7767578 0 0 Z " fill="#DFEFE3" transform="translate(580,645)"/>
<path d="M0 0 C0.66 0.99 1.32 1.98 2 3 C1.01 4.98 0.02 6.96 -1 9 C-1.66 8.01 -2.32 7.02 -3 6 C-2.01 4.02 -1.02 2.04 0 0 Z " fill="#23A142" transform="translate(484,501)"/>
<path d="M0 0 C8.57142857 -0.28571429 8.57142857 -0.28571429 12 2 C9.69 2.33 7.38 2.66 5 3 C5 2.34 5 1.68 5 1 C3.35 1 1.7 1 0 1 C0 0.67 0 0.34 0 0 Z " fill="#187F38" transform="translate(400,404)"/>
<path d="M0 0 C0.33 0.99 0.66 1.98 1 3 C2.65 2.67 4.3 2.34 6 2 C6 3.32 6 4.64 6 6 C5.01 6.33 4.02 6.66 3 7 C3 6.01 3 5.02 3 4 C2.01 4 1.02 4 0 4 C0 2.68 0 1.36 0 0 Z " fill="#0D872D" transform="translate(442,388)"/>
<path d="M0 0 C0.33 0.66 0.66 1.32 1 2 C1.66 2.33 2.32 2.66 3 3 C1.35 3 -0.3 3 -2 3 C-2.33 3.66 -2.66 4.32 -3 5 C-4.32 4.34 -5.64 3.68 -7 3 C-4.38058783 1.25372522 -2.96175123 0.61277612 0 0 Z " fill="#219E46" transform="translate(695,350)"/>
<path d="M0 0 C-2.76223278 2.76223278 -5.20706617 2.57856291 -9 3 C-8.34 2.67 -7.68 2.34 -7 2 C-7 1.34 -7 0.68 -7 0 C-4.3333581 -1.33332095 -2.83319697 -0.67102033 0 0 Z " fill="#1D8139" transform="translate(397,288)"/>
</svg>
